M48
; DRILL file {KiCad (5.1.5)-3} date 22/04/2020 13:27:14
; FORMAT={-:-/ absolute / inch / decimal}
; #@! TF.CreationDate,2020-04-22T13:27:14+02:00
; #@! TF.GenerationSoftware,Kicad,Pcbnew,(5.1.5)-3
; #@! TF.FileFunction,Plated,1,2,PTH
FMAT,2
INCH
T1C0.0276
T2C0.0300
T3C0.0315
T4C0.0472
%
G90
G05
T1
X6.3066Y-4.58
X6.405Y-4.58
X4.7Y-2.82
X4.7Y-2.9184
X5.26Y-2.82
X5.26Y-2.9184
T2
X6.455Y-2.25
X6.455Y-2.65
X6.555Y-2.25
X6.555Y-2.65
X8.155Y-2.25
X8.155Y-2.65
X8.255Y-2.25
X8.255Y-2.65
X6.405Y-3.4
X6.405Y-4.4
X6.505Y-3.4
X6.505Y-4.4
X6.605Y-3.4
X6.605Y-4.4
X6.705Y-3.4
X6.705Y-4.4
X6.805Y-3.4
X6.805Y-4.4
X6.905Y-3.4
X6.905Y-4.4
X7.005Y-3.4
X7.005Y-4.4
X7.105Y-3.4
X7.105Y-4.4
X7.205Y-3.4
X7.205Y-4.4
X7.305Y-3.4
X7.305Y-4.4
X7.405Y-3.4
X7.405Y-4.4
X7.505Y-3.4
X7.505Y-4.4
X7.605Y-3.4
X7.605Y-4.4
X7.705Y-3.4
X7.705Y-4.4
X7.805Y-3.4
X7.805Y-4.4
X7.905Y-3.4
X7.905Y-4.4
X8.005Y-3.4
X8.005Y-4.4
X8.105Y-3.4
X8.105Y-4.4
X8.205Y-3.4
X8.205Y-4.4
X4.695Y-2.035
X4.695Y-2.135
X4.695Y-2.235
X4.695Y-2.54
X4.695Y-2.64
X5.4387Y-2.035
X5.4387Y-2.135
X5.4387Y-2.54
X5.4387Y-2.64
T3
X4.66Y-3.16
X4.66Y-3.26
X4.66Y-3.36
X4.66Y-3.46
X4.66Y-3.56
X4.66Y-3.66
X4.66Y-3.76
X4.66Y-3.86
X4.66Y-3.96
X4.66Y-4.06
X4.66Y-4.16
X4.66Y-4.26
X4.66Y-4.36
X4.66Y-4.46
X4.66Y-4.56
X4.66Y-4.66
X4.66Y-4.76
X4.66Y-4.86
X4.66Y-4.96
X4.66Y-5.06
X5.26Y-3.16
X5.26Y-3.26
X5.26Y-3.36
X5.26Y-3.46
X5.26Y-3.56
X5.26Y-3.66
X5.26Y-3.76
X5.26Y-3.86
X5.26Y-3.96
X5.26Y-4.06
X5.26Y-4.16
X5.26Y-4.26
X5.26Y-4.36
X5.26Y-4.46
X5.26Y-4.56
X5.26Y-4.66
X5.26Y-4.76
X5.26Y-4.86
X5.26Y-4.96
X5.26Y-5.06
T4
X4.92Y-1.65
X5.22Y-1.65
X5.52Y-1.65
T1
G00X5.87Y-2.3949
M15
G01X5.87Y-2.3201
M16
G05
G00X5.96Y-1.7449
M15
G01X5.96Y-1.6701
M16
G05
G00X6.0525Y-2.3949
M15
G01X6.0525Y-2.3201
M16
G05
T0
M30
