G04 #@! TF.GenerationSoftware,KiCad,Pcbnew,(5.1.5)-3*
G04 #@! TF.CreationDate,2020-04-22T13:27:11+02:00*
G04 #@! TF.ProjectId,esp32_ym2149,65737033-325f-4796-9d32-3134392e6b69,rev?*
G04 #@! TF.SameCoordinates,Original*
G04 #@! TF.FileFunction,Legend,Top*
G04 #@! TF.FilePolarity,Positive*
%FSLAX46Y46*%
G04 Gerber Fmt 4.6, Leading zero omitted, Abs format (unit mm)*
G04 Created by KiCad (PCBNEW (5.1.5)-3) date 2020-04-22 13:27:11*
%MOMM*%
%LPD*%
G04 APERTURE LIST*
%ADD10C,0.150000*%
%ADD11C,0.120000*%
%ADD12C,0.200000*%
%ADD13C,0.010000*%
%ADD14C,0.300000*%
G04 APERTURE END LIST*
D10*
X159718880Y-144978380D02*
X159909357Y-144978380D01*
X160004595Y-144930761D01*
X160052214Y-144883142D01*
X160147452Y-144740285D01*
X160195071Y-144549809D01*
X160195071Y-144168857D01*
X160147452Y-144073619D01*
X160099833Y-144026000D01*
X160004595Y-143978380D01*
X159814119Y-143978380D01*
X159718880Y-144026000D01*
X159671261Y-144073619D01*
X159623642Y-144168857D01*
X159623642Y-144406952D01*
X159671261Y-144502190D01*
X159718880Y-144549809D01*
X159814119Y-144597428D01*
X160004595Y-144597428D01*
X160099833Y-144549809D01*
X160147452Y-144502190D01*
X160195071Y-144406952D01*
X160671261Y-144978380D02*
X160861738Y-144978380D01*
X160956976Y-144930761D01*
X161004595Y-144883142D01*
X161099833Y-144740285D01*
X161147452Y-144549809D01*
X161147452Y-144168857D01*
X161099833Y-144073619D01*
X161052214Y-144026000D01*
X160956976Y-143978380D01*
X160766500Y-143978380D01*
X160671261Y-144026000D01*
X160623642Y-144073619D01*
X160576023Y-144168857D01*
X160576023Y-144406952D01*
X160623642Y-144502190D01*
X160671261Y-144549809D01*
X160766500Y-144597428D01*
X160956976Y-144597428D01*
X161052214Y-144549809D01*
X161099833Y-144502190D01*
X161147452Y-144406952D01*
X161576023Y-144883142D02*
X161623642Y-144930761D01*
X161576023Y-144978380D01*
X161528404Y-144930761D01*
X161576023Y-144883142D01*
X161576023Y-144978380D01*
X162099833Y-144978380D02*
X162290309Y-144978380D01*
X162385547Y-144930761D01*
X162433166Y-144883142D01*
X162528404Y-144740285D01*
X162576023Y-144549809D01*
X162576023Y-144168857D01*
X162528404Y-144073619D01*
X162480785Y-144026000D01*
X162385547Y-143978380D01*
X162195071Y-143978380D01*
X162099833Y-144026000D01*
X162052214Y-144073619D01*
X162004595Y-144168857D01*
X162004595Y-144406952D01*
X162052214Y-144502190D01*
X162099833Y-144549809D01*
X162195071Y-144597428D01*
X162385547Y-144597428D01*
X162480785Y-144549809D01*
X162528404Y-144502190D01*
X162576023Y-144406952D01*
X163433166Y-144311714D02*
X163433166Y-144978380D01*
X163195071Y-143930761D02*
X162956976Y-144645047D01*
X163576023Y-144645047D01*
X164004595Y-144978380D02*
X164195071Y-144978380D01*
X164290309Y-144930761D01*
X164337928Y-144883142D01*
X164433166Y-144740285D01*
X164480785Y-144549809D01*
X164480785Y-144168857D01*
X164433166Y-144073619D01*
X164385547Y-144026000D01*
X164290309Y-143978380D01*
X164099833Y-143978380D01*
X164004595Y-144026000D01*
X163956976Y-144073619D01*
X163909357Y-144168857D01*
X163909357Y-144406952D01*
X163956976Y-144502190D01*
X164004595Y-144549809D01*
X164099833Y-144597428D01*
X164290309Y-144597428D01*
X164385547Y-144549809D01*
X164433166Y-144502190D01*
X164480785Y-144406952D01*
X165671261Y-144978380D02*
X165671261Y-144311714D01*
X165671261Y-144406952D02*
X165718880Y-144359333D01*
X165814119Y-144311714D01*
X165956976Y-144311714D01*
X166052214Y-144359333D01*
X166099833Y-144454571D01*
X166099833Y-144978380D01*
X166099833Y-144454571D02*
X166147452Y-144359333D01*
X166242690Y-144311714D01*
X166385547Y-144311714D01*
X166480785Y-144359333D01*
X166528404Y-144454571D01*
X166528404Y-144978380D01*
X167004595Y-144978380D02*
X167004595Y-144311714D01*
X167004595Y-144406952D02*
X167052214Y-144359333D01*
X167147452Y-144311714D01*
X167290309Y-144311714D01*
X167385547Y-144359333D01*
X167433166Y-144454571D01*
X167433166Y-144978380D01*
X167433166Y-144454571D02*
X167480785Y-144359333D01*
X167576023Y-144311714D01*
X167718880Y-144311714D01*
X167814119Y-144359333D01*
X167861738Y-144454571D01*
X167861738Y-144978380D01*
D11*
X113792000Y-143256000D02*
X213741000Y-143256000D01*
X113792000Y-133096000D02*
X113792000Y-143842421D01*
X213741000Y-133096000D02*
X213741000Y-143842421D01*
X213741000Y-143256000D02*
X212614496Y-143842421D01*
X213741000Y-143256000D02*
X212614496Y-142669579D01*
X113792000Y-143256000D02*
X114918504Y-143842421D01*
X113792000Y-143256000D02*
X114918504Y-142669579D01*
D10*
X224210619Y-81550380D02*
X224210619Y-81740857D01*
X224258238Y-81836095D01*
X224305857Y-81883714D01*
X224448714Y-81978952D01*
X224639190Y-82026571D01*
X225020142Y-82026571D01*
X225115380Y-81978952D01*
X225163000Y-81931333D01*
X225210619Y-81836095D01*
X225210619Y-81645619D01*
X225163000Y-81550380D01*
X225115380Y-81502761D01*
X225020142Y-81455142D01*
X224782047Y-81455142D01*
X224686809Y-81502761D01*
X224639190Y-81550380D01*
X224591571Y-81645619D01*
X224591571Y-81836095D01*
X224639190Y-81931333D01*
X224686809Y-81978952D01*
X224782047Y-82026571D01*
X224877285Y-82883714D02*
X224210619Y-82883714D01*
X225258238Y-82645619D02*
X224543952Y-82407523D01*
X224543952Y-83026571D01*
X224305857Y-83407523D02*
X224258238Y-83455142D01*
X224210619Y-83407523D01*
X224258238Y-83359904D01*
X224305857Y-83407523D01*
X224210619Y-83407523D01*
X224210619Y-83931333D02*
X224210619Y-84121809D01*
X224258238Y-84217047D01*
X224305857Y-84264666D01*
X224448714Y-84359904D01*
X224639190Y-84407523D01*
X225020142Y-84407523D01*
X225115380Y-84359904D01*
X225163000Y-84312285D01*
X225210619Y-84217047D01*
X225210619Y-84026571D01*
X225163000Y-83931333D01*
X225115380Y-83883714D01*
X225020142Y-83836095D01*
X224782047Y-83836095D01*
X224686809Y-83883714D01*
X224639190Y-83931333D01*
X224591571Y-84026571D01*
X224591571Y-84217047D01*
X224639190Y-84312285D01*
X224686809Y-84359904D01*
X224782047Y-84407523D01*
X224210619Y-84883714D02*
X224210619Y-85074190D01*
X224258238Y-85169428D01*
X224305857Y-85217047D01*
X224448714Y-85312285D01*
X224639190Y-85359904D01*
X225020142Y-85359904D01*
X225115380Y-85312285D01*
X225163000Y-85264666D01*
X225210619Y-85169428D01*
X225210619Y-84978952D01*
X225163000Y-84883714D01*
X225115380Y-84836095D01*
X225020142Y-84788476D01*
X224782047Y-84788476D01*
X224686809Y-84836095D01*
X224639190Y-84883714D01*
X224591571Y-84978952D01*
X224591571Y-85169428D01*
X224639190Y-85264666D01*
X224686809Y-85312285D01*
X224782047Y-85359904D01*
X225210619Y-86217047D02*
X225210619Y-86026571D01*
X225163000Y-85931333D01*
X225115380Y-85883714D01*
X224972523Y-85788476D01*
X224782047Y-85740857D01*
X224401095Y-85740857D01*
X224305857Y-85788476D01*
X224258238Y-85836095D01*
X224210619Y-85931333D01*
X224210619Y-86121809D01*
X224258238Y-86217047D01*
X224305857Y-86264666D01*
X224401095Y-86312285D01*
X224639190Y-86312285D01*
X224734428Y-86264666D01*
X224782047Y-86217047D01*
X224829666Y-86121809D01*
X224829666Y-85931333D01*
X224782047Y-85836095D01*
X224734428Y-85788476D01*
X224639190Y-85740857D01*
X224210619Y-87502761D02*
X224877285Y-87502761D01*
X224782047Y-87502761D02*
X224829666Y-87550380D01*
X224877285Y-87645619D01*
X224877285Y-87788476D01*
X224829666Y-87883714D01*
X224734428Y-87931333D01*
X224210619Y-87931333D01*
X224734428Y-87931333D02*
X224829666Y-87978952D01*
X224877285Y-88074190D01*
X224877285Y-88217047D01*
X224829666Y-88312285D01*
X224734428Y-88359904D01*
X224210619Y-88359904D01*
X224210619Y-88836095D02*
X224877285Y-88836095D01*
X224782047Y-88836095D02*
X224829666Y-88883714D01*
X224877285Y-88978952D01*
X224877285Y-89121809D01*
X224829666Y-89217047D01*
X224734428Y-89264666D01*
X224210619Y-89264666D01*
X224734428Y-89264666D02*
X224829666Y-89312285D01*
X224877285Y-89407523D01*
X224877285Y-89550380D01*
X224829666Y-89645619D01*
X224734428Y-89693238D01*
X224210619Y-89693238D01*
D11*
X223393000Y-38100000D02*
X223393000Y-133096000D01*
X213741000Y-38100000D02*
X223979421Y-38100000D01*
X213741000Y-133096000D02*
X223979421Y-133096000D01*
X223393000Y-133096000D02*
X222806579Y-131969496D01*
X223393000Y-133096000D02*
X223979421Y-131969496D01*
X223393000Y-38100000D02*
X222806579Y-39226504D01*
X223393000Y-38100000D02*
X223979421Y-39226504D01*
D12*
X162118619Y-74222380D02*
X162118619Y-75174761D01*
X161451952Y-73174761D02*
X162118619Y-74222380D01*
X162785285Y-73174761D01*
X163451952Y-75174761D02*
X163451952Y-73174761D01*
X164118619Y-74603333D01*
X164785285Y-73174761D01*
X164785285Y-75174761D01*
X165642428Y-73365238D02*
X165737666Y-73270000D01*
X165928142Y-73174761D01*
X166404333Y-73174761D01*
X166594809Y-73270000D01*
X166690047Y-73365238D01*
X166785285Y-73555714D01*
X166785285Y-73746190D01*
X166690047Y-74031904D01*
X165547190Y-75174761D01*
X166785285Y-75174761D01*
X168690047Y-75174761D02*
X167547190Y-75174761D01*
X168118619Y-75174761D02*
X168118619Y-73174761D01*
X167928142Y-73460476D01*
X167737666Y-73650952D01*
X167547190Y-73746190D01*
X170404333Y-73841428D02*
X170404333Y-75174761D01*
X169928142Y-73079523D02*
X169451952Y-74508095D01*
X170690047Y-74508095D01*
X171547190Y-75174761D02*
X171928142Y-75174761D01*
X172118619Y-75079523D01*
X172213857Y-74984285D01*
X172404333Y-74698571D01*
X172499571Y-74317619D01*
X172499571Y-73555714D01*
X172404333Y-73365238D01*
X172309095Y-73270000D01*
X172118619Y-73174761D01*
X171737666Y-73174761D01*
X171547190Y-73270000D01*
X171451952Y-73365238D01*
X171356714Y-73555714D01*
X171356714Y-74031904D01*
X171451952Y-74222380D01*
X171547190Y-74317619D01*
X171737666Y-74412857D01*
X172118619Y-74412857D01*
X172309095Y-74317619D01*
X172404333Y-74222380D01*
X172499571Y-74031904D01*
X174880523Y-74127142D02*
X175547190Y-74127142D01*
X175832904Y-75174761D02*
X174880523Y-75174761D01*
X174880523Y-73174761D01*
X175832904Y-73174761D01*
X176594809Y-75079523D02*
X176880523Y-75174761D01*
X177356714Y-75174761D01*
X177547190Y-75079523D01*
X177642428Y-74984285D01*
X177737666Y-74793809D01*
X177737666Y-74603333D01*
X177642428Y-74412857D01*
X177547190Y-74317619D01*
X177356714Y-74222380D01*
X176975761Y-74127142D01*
X176785285Y-74031904D01*
X176690047Y-73936666D01*
X176594809Y-73746190D01*
X176594809Y-73555714D01*
X176690047Y-73365238D01*
X176785285Y-73270000D01*
X176975761Y-73174761D01*
X177451952Y-73174761D01*
X177737666Y-73270000D01*
X178594809Y-75174761D02*
X178594809Y-73174761D01*
X179356714Y-73174761D01*
X179547190Y-73270000D01*
X179642428Y-73365238D01*
X179737666Y-73555714D01*
X179737666Y-73841428D01*
X179642428Y-74031904D01*
X179547190Y-74127142D01*
X179356714Y-74222380D01*
X178594809Y-74222380D01*
X180404333Y-73174761D02*
X181642428Y-73174761D01*
X180975761Y-73936666D01*
X181261476Y-73936666D01*
X181451952Y-74031904D01*
X181547190Y-74127142D01*
X181642428Y-74317619D01*
X181642428Y-74793809D01*
X181547190Y-74984285D01*
X181451952Y-75079523D01*
X181261476Y-75174761D01*
X180690047Y-75174761D01*
X180499571Y-75079523D01*
X180404333Y-74984285D01*
X182404333Y-73365238D02*
X182499571Y-73270000D01*
X182690047Y-73174761D01*
X183166238Y-73174761D01*
X183356714Y-73270000D01*
X183451952Y-73365238D01*
X183547190Y-73555714D01*
X183547190Y-73746190D01*
X183451952Y-74031904D01*
X182309095Y-75174761D01*
X183547190Y-75174761D01*
X185737666Y-73174761D02*
X186213857Y-75174761D01*
X186594809Y-73746190D01*
X186975761Y-75174761D01*
X187451952Y-73174761D01*
X188213857Y-75174761D02*
X188213857Y-73841428D01*
X188213857Y-73174761D02*
X188118619Y-73270000D01*
X188213857Y-73365238D01*
X188309095Y-73270000D01*
X188213857Y-73174761D01*
X188213857Y-73365238D01*
X189832904Y-74127142D02*
X189166238Y-74127142D01*
X189166238Y-75174761D02*
X189166238Y-73174761D01*
X190118619Y-73174761D01*
X190880523Y-75174761D02*
X190880523Y-73841428D01*
X190880523Y-73174761D02*
X190785285Y-73270000D01*
X190880523Y-73365238D01*
X190975761Y-73270000D01*
X190880523Y-73174761D01*
X190880523Y-73365238D01*
X193261476Y-75079523D02*
X193547190Y-75174761D01*
X194023380Y-75174761D01*
X194213857Y-75079523D01*
X194309095Y-74984285D01*
X194404333Y-74793809D01*
X194404333Y-74603333D01*
X194309095Y-74412857D01*
X194213857Y-74317619D01*
X194023380Y-74222380D01*
X193642428Y-74127142D01*
X193451952Y-74031904D01*
X193356714Y-73936666D01*
X193261476Y-73746190D01*
X193261476Y-73555714D01*
X193356714Y-73365238D01*
X193451952Y-73270000D01*
X193642428Y-73174761D01*
X194118619Y-73174761D01*
X194404333Y-73270000D01*
X195547190Y-75174761D02*
X195356714Y-75079523D01*
X195261476Y-74984285D01*
X195166238Y-74793809D01*
X195166238Y-74222380D01*
X195261476Y-74031904D01*
X195356714Y-73936666D01*
X195547190Y-73841428D01*
X195832904Y-73841428D01*
X196023380Y-73936666D01*
X196118619Y-74031904D01*
X196213857Y-74222380D01*
X196213857Y-74793809D01*
X196118619Y-74984285D01*
X196023380Y-75079523D01*
X195832904Y-75174761D01*
X195547190Y-75174761D01*
X197928142Y-73841428D02*
X197928142Y-75174761D01*
X197070999Y-73841428D02*
X197070999Y-74889047D01*
X197166238Y-75079523D01*
X197356714Y-75174761D01*
X197642428Y-75174761D01*
X197832904Y-75079523D01*
X197928142Y-74984285D01*
X198880523Y-73841428D02*
X198880523Y-75174761D01*
X198880523Y-74031904D02*
X198975761Y-73936666D01*
X199166238Y-73841428D01*
X199451952Y-73841428D01*
X199642428Y-73936666D01*
X199737666Y-74127142D01*
X199737666Y-75174761D01*
X201547190Y-75174761D02*
X201547190Y-73174761D01*
X201547190Y-75079523D02*
X201356714Y-75174761D01*
X200975761Y-75174761D01*
X200785285Y-75079523D01*
X200690047Y-74984285D01*
X200594809Y-74793809D01*
X200594809Y-74222380D01*
X200690047Y-74031904D01*
X200785285Y-73936666D01*
X200975761Y-73841428D01*
X201356714Y-73841428D01*
X201547190Y-73936666D01*
X202499571Y-75174761D02*
X202499571Y-73841428D01*
X202499571Y-74031904D02*
X202594809Y-73936666D01*
X202785285Y-73841428D01*
X203070999Y-73841428D01*
X203261476Y-73936666D01*
X203356714Y-74127142D01*
X203356714Y-75174761D01*
X203356714Y-74127142D02*
X203451952Y-73936666D01*
X203642428Y-73841428D01*
X203928142Y-73841428D01*
X204118619Y-73936666D01*
X204213857Y-74127142D01*
X204213857Y-75174761D01*
X205451952Y-75174761D02*
X205261476Y-75079523D01*
X205166238Y-74984285D01*
X205070999Y-74793809D01*
X205070999Y-74222380D01*
X205166238Y-74031904D01*
X205261476Y-73936666D01*
X205451952Y-73841428D01*
X205737666Y-73841428D01*
X205928142Y-73936666D01*
X206023380Y-74031904D01*
X206118619Y-74222380D01*
X206118619Y-74793809D01*
X206023380Y-74984285D01*
X205928142Y-75079523D01*
X205737666Y-75174761D01*
X205451952Y-75174761D01*
X207832904Y-75174761D02*
X207832904Y-73174761D01*
X207832904Y-75079523D02*
X207642428Y-75174761D01*
X207261476Y-75174761D01*
X207070999Y-75079523D01*
X206975761Y-74984285D01*
X206880523Y-74793809D01*
X206880523Y-74222380D01*
X206975761Y-74031904D01*
X207070999Y-73936666D01*
X207261476Y-73841428D01*
X207642428Y-73841428D01*
X207832904Y-73936666D01*
X209642428Y-73841428D02*
X209642428Y-75174761D01*
X208785285Y-73841428D02*
X208785285Y-74889047D01*
X208880523Y-75079523D01*
X209070999Y-75174761D01*
X209356714Y-75174761D01*
X209547190Y-75079523D01*
X209642428Y-74984285D01*
X210880523Y-75174761D02*
X210690047Y-75079523D01*
X210594809Y-74889047D01*
X210594809Y-73174761D01*
X212404333Y-75079523D02*
X212213857Y-75174761D01*
X211832904Y-75174761D01*
X211642428Y-75079523D01*
X211547190Y-74889047D01*
X211547190Y-74127142D01*
X211642428Y-73936666D01*
X211832904Y-73841428D01*
X212213857Y-73841428D01*
X212404333Y-73936666D01*
X212499571Y-74127142D01*
X212499571Y-74317619D01*
X211547190Y-74508095D01*
X173642428Y-78374761D02*
X173642428Y-76374761D01*
X173642428Y-77327142D02*
X174785285Y-77327142D01*
X174785285Y-78374761D02*
X174785285Y-76374761D01*
X176594809Y-78374761D02*
X176594809Y-77327142D01*
X176499571Y-77136666D01*
X176309095Y-77041428D01*
X175928142Y-77041428D01*
X175737666Y-77136666D01*
X176594809Y-78279523D02*
X176404333Y-78374761D01*
X175928142Y-78374761D01*
X175737666Y-78279523D01*
X175642428Y-78089047D01*
X175642428Y-77898571D01*
X175737666Y-77708095D01*
X175928142Y-77612857D01*
X176404333Y-77612857D01*
X176594809Y-77517619D01*
X177547190Y-78374761D02*
X177547190Y-77041428D01*
X177547190Y-77422380D02*
X177642428Y-77231904D01*
X177737666Y-77136666D01*
X177928142Y-77041428D01*
X178118619Y-77041428D01*
X179642428Y-78374761D02*
X179642428Y-76374761D01*
X179642428Y-78279523D02*
X179451952Y-78374761D01*
X179071000Y-78374761D01*
X178880523Y-78279523D01*
X178785285Y-78184285D01*
X178690047Y-77993809D01*
X178690047Y-77422380D01*
X178785285Y-77231904D01*
X178880523Y-77136666D01*
X179071000Y-77041428D01*
X179451952Y-77041428D01*
X179642428Y-77136666D01*
X180404333Y-77041428D02*
X180785285Y-78374761D01*
X181166238Y-77422380D01*
X181547190Y-78374761D01*
X181928142Y-77041428D01*
X183547190Y-78374761D02*
X183547190Y-77327142D01*
X183451952Y-77136666D01*
X183261476Y-77041428D01*
X182880523Y-77041428D01*
X182690047Y-77136666D01*
X183547190Y-78279523D02*
X183356714Y-78374761D01*
X182880523Y-78374761D01*
X182690047Y-78279523D01*
X182594809Y-78089047D01*
X182594809Y-77898571D01*
X182690047Y-77708095D01*
X182880523Y-77612857D01*
X183356714Y-77612857D01*
X183547190Y-77517619D01*
X184499571Y-78374761D02*
X184499571Y-77041428D01*
X184499571Y-77422380D02*
X184594809Y-77231904D01*
X184690047Y-77136666D01*
X184880523Y-77041428D01*
X185071000Y-77041428D01*
X186499571Y-78279523D02*
X186309095Y-78374761D01*
X185928142Y-78374761D01*
X185737666Y-78279523D01*
X185642428Y-78089047D01*
X185642428Y-77327142D01*
X185737666Y-77136666D01*
X185928142Y-77041428D01*
X186309095Y-77041428D01*
X186499571Y-77136666D01*
X186594809Y-77327142D01*
X186594809Y-77517619D01*
X185642428Y-77708095D01*
X190118619Y-78374761D02*
X189451952Y-77422380D01*
X188975761Y-78374761D02*
X188975761Y-76374761D01*
X189737666Y-76374761D01*
X189928142Y-76470000D01*
X190023380Y-76565238D01*
X190118619Y-76755714D01*
X190118619Y-77041428D01*
X190023380Y-77231904D01*
X189928142Y-77327142D01*
X189737666Y-77422380D01*
X188975761Y-77422380D01*
X191737666Y-78279523D02*
X191547190Y-78374761D01*
X191166238Y-78374761D01*
X190975761Y-78279523D01*
X190880523Y-78089047D01*
X190880523Y-77327142D01*
X190975761Y-77136666D01*
X191166238Y-77041428D01*
X191547190Y-77041428D01*
X191737666Y-77136666D01*
X191832904Y-77327142D01*
X191832904Y-77517619D01*
X190880523Y-77708095D01*
X192499571Y-77041428D02*
X192975761Y-78374761D01*
X193451952Y-77041428D01*
X194213857Y-78184285D02*
X194309095Y-78279523D01*
X194213857Y-78374761D01*
X194118619Y-78279523D01*
X194213857Y-78184285D01*
X194213857Y-78374761D01*
X197737666Y-78374761D02*
X196594809Y-78374761D01*
X197166238Y-78374761D02*
X197166238Y-76374761D01*
X196975761Y-76660476D01*
X196785285Y-76850952D01*
X196594809Y-76946190D01*
X198594809Y-78184285D02*
X198690047Y-78279523D01*
X198594809Y-78374761D01*
X198499571Y-78279523D01*
X198594809Y-78184285D01*
X198594809Y-78374761D01*
X199928142Y-76374761D02*
X200118619Y-76374761D01*
X200309095Y-76470000D01*
X200404333Y-76565238D01*
X200499571Y-76755714D01*
X200594809Y-77136666D01*
X200594809Y-77612857D01*
X200499571Y-77993809D01*
X200404333Y-78184285D01*
X200309095Y-78279523D01*
X200118619Y-78374761D01*
X199928142Y-78374761D01*
X199737666Y-78279523D01*
X199642428Y-78184285D01*
X199547190Y-77993809D01*
X199451952Y-77612857D01*
X199451952Y-77136666D01*
X199547190Y-76755714D01*
X199642428Y-76565238D01*
X199737666Y-76470000D01*
X199928142Y-76374761D01*
X177642428Y-81574761D02*
X177642428Y-79574761D01*
X177642428Y-81479523D02*
X177451952Y-81574761D01*
X177071000Y-81574761D01*
X176880523Y-81479523D01*
X176785285Y-81384285D01*
X176690047Y-81193809D01*
X176690047Y-80622380D01*
X176785285Y-80431904D01*
X176880523Y-80336666D01*
X177071000Y-80241428D01*
X177451952Y-80241428D01*
X177642428Y-80336666D01*
X178880523Y-81574761D02*
X178690047Y-81479523D01*
X178594809Y-81289047D01*
X178594809Y-79574761D01*
X180690047Y-81574761D02*
X179547190Y-81574761D01*
X180118619Y-81574761D02*
X180118619Y-79574761D01*
X179928142Y-79860476D01*
X179737666Y-80050952D01*
X179547190Y-80146190D01*
X181356714Y-81574761D02*
X182404333Y-80241428D01*
X181356714Y-80241428D02*
X182404333Y-81574761D01*
X182975761Y-80241428D02*
X183451952Y-81574761D01*
X183928142Y-80241428D02*
X183451952Y-81574761D01*
X183261476Y-82050952D01*
X183166238Y-82146190D01*
X182975761Y-82241428D01*
X185928142Y-80622380D02*
X185832904Y-80527142D01*
X185642428Y-80431904D01*
X185451952Y-80431904D01*
X185261476Y-80527142D01*
X185166238Y-80622380D01*
X185071000Y-80812857D01*
X185071000Y-81003333D01*
X185166238Y-81193809D01*
X185261476Y-81289047D01*
X185451952Y-81384285D01*
X185642428Y-81384285D01*
X185832904Y-81289047D01*
X185928142Y-81193809D01*
X185928142Y-80431904D02*
X185928142Y-81193809D01*
X186023380Y-81289047D01*
X186118619Y-81289047D01*
X186309095Y-81193809D01*
X186404333Y-81003333D01*
X186404333Y-80527142D01*
X186213857Y-80241428D01*
X185928142Y-80050952D01*
X185547190Y-79955714D01*
X185166238Y-80050952D01*
X184880523Y-80241428D01*
X184690047Y-80527142D01*
X184594809Y-80908095D01*
X184690047Y-81289047D01*
X184880523Y-81574761D01*
X185166238Y-81765238D01*
X185547190Y-81860476D01*
X185928142Y-81765238D01*
X186213857Y-81574761D01*
X188118619Y-81574761D02*
X188118619Y-79574761D01*
X188118619Y-81479523D02*
X187928142Y-81574761D01*
X187547190Y-81574761D01*
X187356714Y-81479523D01*
X187261476Y-81384285D01*
X187166238Y-81193809D01*
X187166238Y-80622380D01*
X187261476Y-80431904D01*
X187356714Y-80336666D01*
X187547190Y-80241428D01*
X187928142Y-80241428D01*
X188118619Y-80336666D01*
X189928142Y-81574761D02*
X189928142Y-80527142D01*
X189832904Y-80336666D01*
X189642428Y-80241428D01*
X189261476Y-80241428D01*
X189071000Y-80336666D01*
X189928142Y-81479523D02*
X189737666Y-81574761D01*
X189261476Y-81574761D01*
X189071000Y-81479523D01*
X188975761Y-81289047D01*
X188975761Y-81098571D01*
X189071000Y-80908095D01*
X189261476Y-80812857D01*
X189737666Y-80812857D01*
X189928142Y-80717619D01*
X190880523Y-81574761D02*
X190880523Y-80241428D01*
X190880523Y-80622380D02*
X190975761Y-80431904D01*
X191071000Y-80336666D01*
X191261476Y-80241428D01*
X191451952Y-80241428D01*
X192975761Y-81479523D02*
X192785285Y-81574761D01*
X192404333Y-81574761D01*
X192213857Y-81479523D01*
X192118619Y-81384285D01*
X192023380Y-81193809D01*
X192023380Y-80622380D01*
X192118619Y-80431904D01*
X192213857Y-80336666D01*
X192404333Y-80241428D01*
X192785285Y-80241428D01*
X192975761Y-80336666D01*
X193832904Y-81384285D02*
X193928142Y-81479523D01*
X193832904Y-81574761D01*
X193737666Y-81479523D01*
X193832904Y-81384285D01*
X193832904Y-81574761D01*
X195642428Y-81574761D02*
X195642428Y-79574761D01*
X195642428Y-81479523D02*
X195451952Y-81574761D01*
X195071000Y-81574761D01*
X194880523Y-81479523D01*
X194785285Y-81384285D01*
X194690047Y-81193809D01*
X194690047Y-80622380D01*
X194785285Y-80431904D01*
X194880523Y-80336666D01*
X195071000Y-80241428D01*
X195451952Y-80241428D01*
X195642428Y-80336666D01*
X197356714Y-81479523D02*
X197166238Y-81574761D01*
X196785285Y-81574761D01*
X196594809Y-81479523D01*
X196499571Y-81289047D01*
X196499571Y-80527142D01*
X196594809Y-80336666D01*
X196785285Y-80241428D01*
X197166238Y-80241428D01*
X197356714Y-80336666D01*
X197451952Y-80527142D01*
X197451952Y-80717619D01*
X196499571Y-80908095D01*
D13*
G36*
X149561014Y-72049998D02*
G01*
X149719006Y-72050863D01*
X149833347Y-72053205D01*
X149911407Y-72057762D01*
X149960554Y-72065270D01*
X149988159Y-72076466D01*
X150001592Y-72092088D01*
X150008221Y-72112873D01*
X150008865Y-72115563D01*
X150018935Y-72164113D01*
X150037575Y-72259905D01*
X150062845Y-72392743D01*
X150092807Y-72552431D01*
X150125522Y-72728774D01*
X150126664Y-72734967D01*
X150159433Y-72907782D01*
X150190093Y-73060469D01*
X150216664Y-73183871D01*
X150237167Y-73268831D01*
X150249626Y-73306190D01*
X150250220Y-73306852D01*
X150286919Y-73325095D01*
X150362586Y-73355497D01*
X150460878Y-73391493D01*
X150461425Y-73391685D01*
X150585233Y-73438222D01*
X150731196Y-73497504D01*
X150868781Y-73557109D01*
X150875293Y-73560056D01*
X151099390Y-73661765D01*
X151595619Y-73322897D01*
X151747846Y-73219592D01*
X151885741Y-73127237D01*
X152001315Y-73051084D01*
X152086579Y-72996385D01*
X152133544Y-72968393D01*
X152138004Y-72966317D01*
X152172134Y-72975560D01*
X152235881Y-73020156D01*
X152331731Y-73102209D01*
X152462169Y-73223821D01*
X152595328Y-73353205D01*
X152723694Y-73480702D01*
X152838581Y-73597046D01*
X152933073Y-73695052D01*
X153000253Y-73767536D01*
X153033206Y-73807313D01*
X153034432Y-73809361D01*
X153038074Y-73836656D01*
X153024350Y-73881234D01*
X152989869Y-73949112D01*
X152931239Y-74046311D01*
X152845070Y-74178851D01*
X152730200Y-74349476D01*
X152628254Y-74499655D01*
X152537123Y-74634350D01*
X152462073Y-74745740D01*
X152408369Y-74826005D01*
X152381280Y-74867325D01*
X152379574Y-74870130D01*
X152382882Y-74909721D01*
X152407953Y-74986669D01*
X152449798Y-75086432D01*
X152464712Y-75118291D01*
X152529786Y-75260226D01*
X152599212Y-75421273D01*
X152655609Y-75560621D01*
X152696247Y-75664044D01*
X152728526Y-75742642D01*
X152747178Y-75783720D01*
X152749497Y-75786885D01*
X152783803Y-75792128D01*
X152864669Y-75806494D01*
X152981343Y-75827937D01*
X153123075Y-75854413D01*
X153279110Y-75883877D01*
X153438698Y-75914283D01*
X153591085Y-75943588D01*
X153725521Y-75969745D01*
X153831252Y-75990710D01*
X153897526Y-76004439D01*
X153913782Y-76008320D01*
X153930573Y-76017900D01*
X153943249Y-76039536D01*
X153952378Y-76080531D01*
X153958531Y-76148189D01*
X153962280Y-76249812D01*
X153964192Y-76392703D01*
X153964840Y-76584165D01*
X153964874Y-76662645D01*
X153964874Y-77300906D01*
X153811598Y-77331160D01*
X153726322Y-77347564D01*
X153599070Y-77371509D01*
X153445315Y-77400107D01*
X153280534Y-77430467D01*
X153234989Y-77438806D01*
X153082932Y-77468370D01*
X152950468Y-77497442D01*
X152848714Y-77523329D01*
X152788788Y-77543337D01*
X152778805Y-77549301D01*
X152754293Y-77591534D01*
X152719148Y-77673370D01*
X152680173Y-77778683D01*
X152672442Y-77801368D01*
X152621360Y-77942018D01*
X152557954Y-78100714D01*
X152495904Y-78243225D01*
X152495598Y-78243886D01*
X152392267Y-78467440D01*
X153071961Y-79467232D01*
X152635621Y-79904300D01*
X152503649Y-80034381D01*
X152383279Y-80149048D01*
X152281273Y-80242181D01*
X152204391Y-80307658D01*
X152159393Y-80339357D01*
X152152938Y-80341368D01*
X152115040Y-80325529D01*
X152037708Y-80281496D01*
X151929389Y-80214490D01*
X151798532Y-80129734D01*
X151657052Y-80034816D01*
X151513461Y-79937998D01*
X151385435Y-79853751D01*
X151281105Y-79787258D01*
X151208600Y-79743702D01*
X151176158Y-79728264D01*
X151136576Y-79741328D01*
X151061519Y-79775750D01*
X150966468Y-79824380D01*
X150956392Y-79829785D01*
X150828391Y-79893980D01*
X150740618Y-79925463D01*
X150686028Y-79925798D01*
X150657575Y-79896548D01*
X150657410Y-79896138D01*
X150643188Y-79861498D01*
X150609269Y-79779269D01*
X150558284Y-79655814D01*
X150492862Y-79497498D01*
X150415634Y-79310686D01*
X150329229Y-79101742D01*
X150245551Y-78899446D01*
X150153588Y-78676200D01*
X150069150Y-78469392D01*
X149994769Y-78285362D01*
X149932974Y-78130451D01*
X149886297Y-78010996D01*
X149857268Y-77933339D01*
X149848322Y-77904356D01*
X149870756Y-77871110D01*
X149929439Y-77818123D01*
X150007689Y-77759704D01*
X150230534Y-77574952D01*
X150404718Y-77363182D01*
X150528154Y-77128856D01*
X150598754Y-76876434D01*
X150614431Y-76610377D01*
X150603036Y-76487575D01*
X150540950Y-76232793D01*
X150434023Y-76007801D01*
X150288889Y-75814817D01*
X150112178Y-75656061D01*
X149910522Y-75533750D01*
X149690554Y-75450105D01*
X149458906Y-75407344D01*
X149222209Y-75407687D01*
X148987095Y-75453352D01*
X148760196Y-75546559D01*
X148548144Y-75689527D01*
X148459636Y-75770383D01*
X148289889Y-75978007D01*
X148171699Y-76204895D01*
X148104278Y-76444433D01*
X148086840Y-76690007D01*
X148118598Y-76935003D01*
X148198765Y-77172808D01*
X148326555Y-77396807D01*
X148501180Y-77600387D01*
X148696312Y-77759704D01*
X148777591Y-77820602D01*
X148835009Y-77873015D01*
X148855678Y-77904406D01*
X148844856Y-77938639D01*
X148814077Y-78020419D01*
X148765874Y-78143407D01*
X148702778Y-78301263D01*
X148627322Y-78487649D01*
X148542038Y-78696226D01*
X148458219Y-78899496D01*
X148365745Y-79122933D01*
X148280089Y-79329984D01*
X148203882Y-79514286D01*
X148139753Y-79669475D01*
X148090332Y-79789188D01*
X148058248Y-79867061D01*
X148046359Y-79896138D01*
X148018274Y-79925677D01*
X147963949Y-79925591D01*
X147876395Y-79894326D01*
X147748619Y-79830329D01*
X147747608Y-79829785D01*
X147651402Y-79780121D01*
X147573631Y-79743945D01*
X147529777Y-79728408D01*
X147527842Y-79728264D01*
X147494829Y-79744024D01*
X147421946Y-79787850D01*
X147317322Y-79854557D01*
X147189090Y-79938964D01*
X147046948Y-80034816D01*
X146902233Y-80131867D01*
X146771804Y-80216270D01*
X146664110Y-80282801D01*
X146587598Y-80326238D01*
X146551062Y-80341368D01*
X146517418Y-80321482D01*
X146449776Y-80265903D01*
X146354893Y-80180754D01*
X146239530Y-80072153D01*
X146110445Y-79946221D01*
X146068229Y-79904149D01*
X145631739Y-79466931D01*
X145963977Y-78979340D01*
X146064946Y-78829605D01*
X146153562Y-78695220D01*
X146224854Y-78583969D01*
X146273850Y-78503639D01*
X146295578Y-78462014D01*
X146296215Y-78459053D01*
X146284760Y-78419818D01*
X146253949Y-78340895D01*
X146209116Y-78235509D01*
X146177647Y-78164954D01*
X146118808Y-78029876D01*
X146063396Y-77893409D01*
X146020436Y-77778103D01*
X146008766Y-77742977D01*
X145975611Y-77649174D01*
X145943201Y-77576694D01*
X145925399Y-77549301D01*
X145886114Y-77532536D01*
X145800374Y-77508770D01*
X145679303Y-77480697D01*
X145534027Y-77451009D01*
X145469012Y-77438806D01*
X145303913Y-77408468D01*
X145145552Y-77379093D01*
X145009404Y-77353569D01*
X144910943Y-77334785D01*
X144892402Y-77331160D01*
X144739127Y-77300906D01*
X144739127Y-76662645D01*
X144739471Y-76452770D01*
X144740884Y-76293980D01*
X144743936Y-76178973D01*
X144749197Y-76100446D01*
X144757237Y-76051096D01*
X144768627Y-76023619D01*
X144783937Y-76010713D01*
X144790218Y-76008320D01*
X144828104Y-75999833D01*
X144911805Y-75982900D01*
X145030567Y-75959566D01*
X145173639Y-75931875D01*
X145330268Y-75901873D01*
X145489703Y-75871604D01*
X145641191Y-75843115D01*
X145773981Y-75818449D01*
X145877319Y-75799651D01*
X145940455Y-75788767D01*
X145954503Y-75786885D01*
X145967230Y-75761704D01*
X145995400Y-75694622D01*
X146033748Y-75598333D01*
X146048391Y-75560621D01*
X146107452Y-75414921D01*
X146177000Y-75253951D01*
X146239288Y-75118291D01*
X146285121Y-75014561D01*
X146315613Y-74929326D01*
X146325792Y-74877126D01*
X146324169Y-74870130D01*
X146302657Y-74837102D01*
X146253535Y-74763643D01*
X146182077Y-74657577D01*
X146093555Y-74526726D01*
X145993241Y-74378912D01*
X145973406Y-74349734D01*
X145857012Y-74176863D01*
X145771452Y-74045226D01*
X145713316Y-73948761D01*
X145679192Y-73881408D01*
X145665669Y-73837106D01*
X145669336Y-73809794D01*
X145669430Y-73809620D01*
X145698293Y-73773746D01*
X145762133Y-73704391D01*
X145854031Y-73608745D01*
X145967067Y-73493999D01*
X146094321Y-73367341D01*
X146108672Y-73353205D01*
X146269043Y-73197903D01*
X146392805Y-73083870D01*
X146482445Y-73009002D01*
X146540448Y-72971196D01*
X146565996Y-72966317D01*
X146603282Y-72987603D01*
X146680657Y-73036773D01*
X146790133Y-73108575D01*
X146923720Y-73197755D01*
X147073430Y-73299063D01*
X147108382Y-73322897D01*
X147604610Y-73661765D01*
X147828707Y-73560056D01*
X147964989Y-73500783D01*
X148111276Y-73441170D01*
X148237035Y-73393640D01*
X148242575Y-73391685D01*
X148340943Y-73355677D01*
X148416771Y-73325229D01*
X148453718Y-73306905D01*
X148453780Y-73306852D01*
X148465504Y-73273729D01*
X148485432Y-73192267D01*
X148511587Y-73071625D01*
X148541990Y-72920959D01*
X148574663Y-72749428D01*
X148577336Y-72734967D01*
X148610110Y-72558235D01*
X148640198Y-72397810D01*
X148665661Y-72263888D01*
X148684559Y-72166663D01*
X148694953Y-72116332D01*
X148695135Y-72115563D01*
X148701461Y-72094153D01*
X148713761Y-72077988D01*
X148739406Y-72066331D01*
X148785765Y-72058445D01*
X148860208Y-72053593D01*
X148970105Y-72051039D01*
X149122825Y-72050045D01*
X149325738Y-72049874D01*
X149352000Y-72049874D01*
X149561014Y-72049998D01*
G37*
X149561014Y-72049998D02*
X149719006Y-72050863D01*
X149833347Y-72053205D01*
X149911407Y-72057762D01*
X149960554Y-72065270D01*
X149988159Y-72076466D01*
X150001592Y-72092088D01*
X150008221Y-72112873D01*
X150008865Y-72115563D01*
X150018935Y-72164113D01*
X150037575Y-72259905D01*
X150062845Y-72392743D01*
X150092807Y-72552431D01*
X150125522Y-72728774D01*
X150126664Y-72734967D01*
X150159433Y-72907782D01*
X150190093Y-73060469D01*
X150216664Y-73183871D01*
X150237167Y-73268831D01*
X150249626Y-73306190D01*
X150250220Y-73306852D01*
X150286919Y-73325095D01*
X150362586Y-73355497D01*
X150460878Y-73391493D01*
X150461425Y-73391685D01*
X150585233Y-73438222D01*
X150731196Y-73497504D01*
X150868781Y-73557109D01*
X150875293Y-73560056D01*
X151099390Y-73661765D01*
X151595619Y-73322897D01*
X151747846Y-73219592D01*
X151885741Y-73127237D01*
X152001315Y-73051084D01*
X152086579Y-72996385D01*
X152133544Y-72968393D01*
X152138004Y-72966317D01*
X152172134Y-72975560D01*
X152235881Y-73020156D01*
X152331731Y-73102209D01*
X152462169Y-73223821D01*
X152595328Y-73353205D01*
X152723694Y-73480702D01*
X152838581Y-73597046D01*
X152933073Y-73695052D01*
X153000253Y-73767536D01*
X153033206Y-73807313D01*
X153034432Y-73809361D01*
X153038074Y-73836656D01*
X153024350Y-73881234D01*
X152989869Y-73949112D01*
X152931239Y-74046311D01*
X152845070Y-74178851D01*
X152730200Y-74349476D01*
X152628254Y-74499655D01*
X152537123Y-74634350D01*
X152462073Y-74745740D01*
X152408369Y-74826005D01*
X152381280Y-74867325D01*
X152379574Y-74870130D01*
X152382882Y-74909721D01*
X152407953Y-74986669D01*
X152449798Y-75086432D01*
X152464712Y-75118291D01*
X152529786Y-75260226D01*
X152599212Y-75421273D01*
X152655609Y-75560621D01*
X152696247Y-75664044D01*
X152728526Y-75742642D01*
X152747178Y-75783720D01*
X152749497Y-75786885D01*
X152783803Y-75792128D01*
X152864669Y-75806494D01*
X152981343Y-75827937D01*
X153123075Y-75854413D01*
X153279110Y-75883877D01*
X153438698Y-75914283D01*
X153591085Y-75943588D01*
X153725521Y-75969745D01*
X153831252Y-75990710D01*
X153897526Y-76004439D01*
X153913782Y-76008320D01*
X153930573Y-76017900D01*
X153943249Y-76039536D01*
X153952378Y-76080531D01*
X153958531Y-76148189D01*
X153962280Y-76249812D01*
X153964192Y-76392703D01*
X153964840Y-76584165D01*
X153964874Y-76662645D01*
X153964874Y-77300906D01*
X153811598Y-77331160D01*
X153726322Y-77347564D01*
X153599070Y-77371509D01*
X153445315Y-77400107D01*
X153280534Y-77430467D01*
X153234989Y-77438806D01*
X153082932Y-77468370D01*
X152950468Y-77497442D01*
X152848714Y-77523329D01*
X152788788Y-77543337D01*
X152778805Y-77549301D01*
X152754293Y-77591534D01*
X152719148Y-77673370D01*
X152680173Y-77778683D01*
X152672442Y-77801368D01*
X152621360Y-77942018D01*
X152557954Y-78100714D01*
X152495904Y-78243225D01*
X152495598Y-78243886D01*
X152392267Y-78467440D01*
X153071961Y-79467232D01*
X152635621Y-79904300D01*
X152503649Y-80034381D01*
X152383279Y-80149048D01*
X152281273Y-80242181D01*
X152204391Y-80307658D01*
X152159393Y-80339357D01*
X152152938Y-80341368D01*
X152115040Y-80325529D01*
X152037708Y-80281496D01*
X151929389Y-80214490D01*
X151798532Y-80129734D01*
X151657052Y-80034816D01*
X151513461Y-79937998D01*
X151385435Y-79853751D01*
X151281105Y-79787258D01*
X151208600Y-79743702D01*
X151176158Y-79728264D01*
X151136576Y-79741328D01*
X151061519Y-79775750D01*
X150966468Y-79824380D01*
X150956392Y-79829785D01*
X150828391Y-79893980D01*
X150740618Y-79925463D01*
X150686028Y-79925798D01*
X150657575Y-79896548D01*
X150657410Y-79896138D01*
X150643188Y-79861498D01*
X150609269Y-79779269D01*
X150558284Y-79655814D01*
X150492862Y-79497498D01*
X150415634Y-79310686D01*
X150329229Y-79101742D01*
X150245551Y-78899446D01*
X150153588Y-78676200D01*
X150069150Y-78469392D01*
X149994769Y-78285362D01*
X149932974Y-78130451D01*
X149886297Y-78010996D01*
X149857268Y-77933339D01*
X149848322Y-77904356D01*
X149870756Y-77871110D01*
X149929439Y-77818123D01*
X150007689Y-77759704D01*
X150230534Y-77574952D01*
X150404718Y-77363182D01*
X150528154Y-77128856D01*
X150598754Y-76876434D01*
X150614431Y-76610377D01*
X150603036Y-76487575D01*
X150540950Y-76232793D01*
X150434023Y-76007801D01*
X150288889Y-75814817D01*
X150112178Y-75656061D01*
X149910522Y-75533750D01*
X149690554Y-75450105D01*
X149458906Y-75407344D01*
X149222209Y-75407687D01*
X148987095Y-75453352D01*
X148760196Y-75546559D01*
X148548144Y-75689527D01*
X148459636Y-75770383D01*
X148289889Y-75978007D01*
X148171699Y-76204895D01*
X148104278Y-76444433D01*
X148086840Y-76690007D01*
X148118598Y-76935003D01*
X148198765Y-77172808D01*
X148326555Y-77396807D01*
X148501180Y-77600387D01*
X148696312Y-77759704D01*
X148777591Y-77820602D01*
X148835009Y-77873015D01*
X148855678Y-77904406D01*
X148844856Y-77938639D01*
X148814077Y-78020419D01*
X148765874Y-78143407D01*
X148702778Y-78301263D01*
X148627322Y-78487649D01*
X148542038Y-78696226D01*
X148458219Y-78899496D01*
X148365745Y-79122933D01*
X148280089Y-79329984D01*
X148203882Y-79514286D01*
X148139753Y-79669475D01*
X148090332Y-79789188D01*
X148058248Y-79867061D01*
X148046359Y-79896138D01*
X148018274Y-79925677D01*
X147963949Y-79925591D01*
X147876395Y-79894326D01*
X147748619Y-79830329D01*
X147747608Y-79829785D01*
X147651402Y-79780121D01*
X147573631Y-79743945D01*
X147529777Y-79728408D01*
X147527842Y-79728264D01*
X147494829Y-79744024D01*
X147421946Y-79787850D01*
X147317322Y-79854557D01*
X147189090Y-79938964D01*
X147046948Y-80034816D01*
X146902233Y-80131867D01*
X146771804Y-80216270D01*
X146664110Y-80282801D01*
X146587598Y-80326238D01*
X146551062Y-80341368D01*
X146517418Y-80321482D01*
X146449776Y-80265903D01*
X146354893Y-80180754D01*
X146239530Y-80072153D01*
X146110445Y-79946221D01*
X146068229Y-79904149D01*
X145631739Y-79466931D01*
X145963977Y-78979340D01*
X146064946Y-78829605D01*
X146153562Y-78695220D01*
X146224854Y-78583969D01*
X146273850Y-78503639D01*
X146295578Y-78462014D01*
X146296215Y-78459053D01*
X146284760Y-78419818D01*
X146253949Y-78340895D01*
X146209116Y-78235509D01*
X146177647Y-78164954D01*
X146118808Y-78029876D01*
X146063396Y-77893409D01*
X146020436Y-77778103D01*
X146008766Y-77742977D01*
X145975611Y-77649174D01*
X145943201Y-77576694D01*
X145925399Y-77549301D01*
X145886114Y-77532536D01*
X145800374Y-77508770D01*
X145679303Y-77480697D01*
X145534027Y-77451009D01*
X145469012Y-77438806D01*
X145303913Y-77408468D01*
X145145552Y-77379093D01*
X145009404Y-77353569D01*
X144910943Y-77334785D01*
X144892402Y-77331160D01*
X144739127Y-77300906D01*
X144739127Y-76662645D01*
X144739471Y-76452770D01*
X144740884Y-76293980D01*
X144743936Y-76178973D01*
X144749197Y-76100446D01*
X144757237Y-76051096D01*
X144768627Y-76023619D01*
X144783937Y-76010713D01*
X144790218Y-76008320D01*
X144828104Y-75999833D01*
X144911805Y-75982900D01*
X145030567Y-75959566D01*
X145173639Y-75931875D01*
X145330268Y-75901873D01*
X145489703Y-75871604D01*
X145641191Y-75843115D01*
X145773981Y-75818449D01*
X145877319Y-75799651D01*
X145940455Y-75788767D01*
X145954503Y-75786885D01*
X145967230Y-75761704D01*
X145995400Y-75694622D01*
X146033748Y-75598333D01*
X146048391Y-75560621D01*
X146107452Y-75414921D01*
X146177000Y-75253951D01*
X146239288Y-75118291D01*
X146285121Y-75014561D01*
X146315613Y-74929326D01*
X146325792Y-74877126D01*
X146324169Y-74870130D01*
X146302657Y-74837102D01*
X146253535Y-74763643D01*
X146182077Y-74657577D01*
X146093555Y-74526726D01*
X145993241Y-74378912D01*
X145973406Y-74349734D01*
X145857012Y-74176863D01*
X145771452Y-74045226D01*
X145713316Y-73948761D01*
X145679192Y-73881408D01*
X145665669Y-73837106D01*
X145669336Y-73809794D01*
X145669430Y-73809620D01*
X145698293Y-73773746D01*
X145762133Y-73704391D01*
X145854031Y-73608745D01*
X145967067Y-73493999D01*
X146094321Y-73367341D01*
X146108672Y-73353205D01*
X146269043Y-73197903D01*
X146392805Y-73083870D01*
X146482445Y-73009002D01*
X146540448Y-72971196D01*
X146565996Y-72966317D01*
X146603282Y-72987603D01*
X146680657Y-73036773D01*
X146790133Y-73108575D01*
X146923720Y-73197755D01*
X147073430Y-73299063D01*
X147108382Y-73322897D01*
X147604610Y-73661765D01*
X147828707Y-73560056D01*
X147964989Y-73500783D01*
X148111276Y-73441170D01*
X148237035Y-73393640D01*
X148242575Y-73391685D01*
X148340943Y-73355677D01*
X148416771Y-73325229D01*
X148453718Y-73306905D01*
X148453780Y-73306852D01*
X148465504Y-73273729D01*
X148485432Y-73192267D01*
X148511587Y-73071625D01*
X148541990Y-72920959D01*
X148574663Y-72749428D01*
X148577336Y-72734967D01*
X148610110Y-72558235D01*
X148640198Y-72397810D01*
X148665661Y-72263888D01*
X148684559Y-72166663D01*
X148694953Y-72116332D01*
X148695135Y-72115563D01*
X148701461Y-72094153D01*
X148713761Y-72077988D01*
X148739406Y-72066331D01*
X148785765Y-72058445D01*
X148860208Y-72053593D01*
X148970105Y-72051039D01*
X149122825Y-72050045D01*
X149325738Y-72049874D01*
X149352000Y-72049874D01*
X149561014Y-72049998D01*
G36*
X155695439Y-81553540D02*
G01*
X155810950Y-81629034D01*
X155866664Y-81696617D01*
X155910804Y-81819255D01*
X155914309Y-81916298D01*
X155906368Y-82046056D01*
X155607115Y-82177039D01*
X155461611Y-82243958D01*
X155366537Y-82297790D01*
X155317101Y-82344416D01*
X155308511Y-82389720D01*
X155335972Y-82439582D01*
X155366253Y-82472632D01*
X155454363Y-82525633D01*
X155550196Y-82529347D01*
X155638212Y-82488041D01*
X155702869Y-82405983D01*
X155714433Y-82377008D01*
X155769825Y-82286509D01*
X155833553Y-82247940D01*
X155920966Y-82214946D01*
X155920966Y-82340034D01*
X155913238Y-82425156D01*
X155882966Y-82496938D01*
X155819518Y-82579356D01*
X155810088Y-82590066D01*
X155739513Y-82663391D01*
X155678847Y-82702742D01*
X155602950Y-82720845D01*
X155540030Y-82726774D01*
X155427487Y-82728251D01*
X155347370Y-82709535D01*
X155297390Y-82681747D01*
X155218838Y-82620641D01*
X155164463Y-82554554D01*
X155130052Y-82471441D01*
X155111388Y-82359254D01*
X155104256Y-82205946D01*
X155103687Y-82128136D01*
X155105622Y-82034853D01*
X155281899Y-82034853D01*
X155283944Y-82084896D01*
X155289039Y-82093092D01*
X155322666Y-82081958D01*
X155395030Y-82052493D01*
X155491747Y-82010601D01*
X155511973Y-82001597D01*
X155634203Y-81939442D01*
X155701547Y-81884815D01*
X155716348Y-81833649D01*
X155680947Y-81781876D01*
X155651711Y-81759000D01*
X155546216Y-81713250D01*
X155447476Y-81720808D01*
X155364812Y-81776651D01*
X155307548Y-81875753D01*
X155289188Y-81954414D01*
X155281899Y-82034853D01*
X155105622Y-82034853D01*
X155107459Y-81946351D01*
X155121359Y-81811853D01*
X155148894Y-81713916D01*
X155193572Y-81641811D01*
X155258901Y-81584813D01*
X155287383Y-81566393D01*
X155416763Y-81518422D01*
X155558412Y-81515403D01*
X155695439Y-81553540D01*
G37*
X155695439Y-81553540D02*
X155810950Y-81629034D01*
X155866664Y-81696617D01*
X155910804Y-81819255D01*
X155914309Y-81916298D01*
X155906368Y-82046056D01*
X155607115Y-82177039D01*
X155461611Y-82243958D01*
X155366537Y-82297790D01*
X155317101Y-82344416D01*
X155308511Y-82389720D01*
X155335972Y-82439582D01*
X155366253Y-82472632D01*
X155454363Y-82525633D01*
X155550196Y-82529347D01*
X155638212Y-82488041D01*
X155702869Y-82405983D01*
X155714433Y-82377008D01*
X155769825Y-82286509D01*
X155833553Y-82247940D01*
X155920966Y-82214946D01*
X155920966Y-82340034D01*
X155913238Y-82425156D01*
X155882966Y-82496938D01*
X155819518Y-82579356D01*
X155810088Y-82590066D01*
X155739513Y-82663391D01*
X155678847Y-82702742D01*
X155602950Y-82720845D01*
X155540030Y-82726774D01*
X155427487Y-82728251D01*
X155347370Y-82709535D01*
X155297390Y-82681747D01*
X155218838Y-82620641D01*
X155164463Y-82554554D01*
X155130052Y-82471441D01*
X155111388Y-82359254D01*
X155104256Y-82205946D01*
X155103687Y-82128136D01*
X155105622Y-82034853D01*
X155281899Y-82034853D01*
X155283944Y-82084896D01*
X155289039Y-82093092D01*
X155322666Y-82081958D01*
X155395030Y-82052493D01*
X155491747Y-82010601D01*
X155511973Y-82001597D01*
X155634203Y-81939442D01*
X155701547Y-81884815D01*
X155716348Y-81833649D01*
X155680947Y-81781876D01*
X155651711Y-81759000D01*
X155546216Y-81713250D01*
X155447476Y-81720808D01*
X155364812Y-81776651D01*
X155307548Y-81875753D01*
X155289188Y-81954414D01*
X155281899Y-82034853D01*
X155105622Y-82034853D01*
X155107459Y-81946351D01*
X155121359Y-81811853D01*
X155148894Y-81713916D01*
X155193572Y-81641811D01*
X155258901Y-81584813D01*
X155287383Y-81566393D01*
X155416763Y-81518422D01*
X155558412Y-81515403D01*
X155695439Y-81553540D01*
G36*
X154687690Y-81537018D02*
G01*
X154722585Y-81552269D01*
X154805877Y-81618235D01*
X154877103Y-81713618D01*
X154921153Y-81815406D01*
X154928322Y-81865587D01*
X154904285Y-81935647D01*
X154851561Y-81972717D01*
X154795031Y-81995164D01*
X154769146Y-81999300D01*
X154756542Y-81969283D01*
X154731654Y-81903961D01*
X154720735Y-81874445D01*
X154659508Y-81772348D01*
X154570861Y-81721423D01*
X154457193Y-81722989D01*
X154448774Y-81724994D01*
X154388088Y-81753767D01*
X154343474Y-81809859D01*
X154313002Y-81900163D01*
X154294744Y-82031571D01*
X154286771Y-82210974D01*
X154286023Y-82306433D01*
X154285652Y-82456913D01*
X154283223Y-82559495D01*
X154276760Y-82624672D01*
X154264288Y-82662938D01*
X154243833Y-82684785D01*
X154213419Y-82700707D01*
X154211661Y-82701509D01*
X154153091Y-82726272D01*
X154124075Y-82735391D01*
X154119616Y-82707822D01*
X154115799Y-82631620D01*
X154112899Y-82516541D01*
X154111191Y-82372341D01*
X154110851Y-82266814D01*
X154112588Y-82062613D01*
X154119382Y-81907697D01*
X154133607Y-81793024D01*
X154157638Y-81709551D01*
X154193848Y-81648236D01*
X154244612Y-81600034D01*
X154294739Y-81566393D01*
X154415275Y-81521619D01*
X154555557Y-81511521D01*
X154687690Y-81537018D01*
G37*
X154687690Y-81537018D02*
X154722585Y-81552269D01*
X154805877Y-81618235D01*
X154877103Y-81713618D01*
X154921153Y-81815406D01*
X154928322Y-81865587D01*
X154904285Y-81935647D01*
X154851561Y-81972717D01*
X154795031Y-81995164D01*
X154769146Y-81999300D01*
X154756542Y-81969283D01*
X154731654Y-81903961D01*
X154720735Y-81874445D01*
X154659508Y-81772348D01*
X154570861Y-81721423D01*
X154457193Y-81722989D01*
X154448774Y-81724994D01*
X154388088Y-81753767D01*
X154343474Y-81809859D01*
X154313002Y-81900163D01*
X154294744Y-82031571D01*
X154286771Y-82210974D01*
X154286023Y-82306433D01*
X154285652Y-82456913D01*
X154283223Y-82559495D01*
X154276760Y-82624672D01*
X154264288Y-82662938D01*
X154243833Y-82684785D01*
X154213419Y-82700707D01*
X154211661Y-82701509D01*
X154153091Y-82726272D01*
X154124075Y-82735391D01*
X154119616Y-82707822D01*
X154115799Y-82631620D01*
X154112899Y-82516541D01*
X154111191Y-82372341D01*
X154110851Y-82266814D01*
X154112588Y-82062613D01*
X154119382Y-81907697D01*
X154133607Y-81793024D01*
X154157638Y-81709551D01*
X154193848Y-81648236D01*
X154244612Y-81600034D01*
X154294739Y-81566393D01*
X154415275Y-81521619D01*
X154555557Y-81511521D01*
X154687690Y-81537018D01*
G36*
X153666406Y-81532156D02*
G01*
X153750469Y-81570393D01*
X153816450Y-81616726D01*
X153864794Y-81668532D01*
X153898172Y-81735363D01*
X153919253Y-81826769D01*
X153930707Y-81952301D01*
X153935203Y-82121508D01*
X153935678Y-82232933D01*
X153935678Y-82667627D01*
X153861316Y-82701509D01*
X153802746Y-82726272D01*
X153773730Y-82735391D01*
X153768179Y-82708257D01*
X153763775Y-82635094D01*
X153761078Y-82528263D01*
X153760506Y-82443437D01*
X153758046Y-82320887D01*
X153751412Y-82223668D01*
X153741726Y-82164134D01*
X153734032Y-82151483D01*
X153682311Y-82164402D01*
X153601117Y-82197539D01*
X153507102Y-82242461D01*
X153416917Y-82290735D01*
X153347215Y-82333928D01*
X153314648Y-82363608D01*
X153314519Y-82363929D01*
X153317320Y-82418857D01*
X153342439Y-82471292D01*
X153386541Y-82513881D01*
X153450909Y-82528126D01*
X153505921Y-82526466D01*
X153583835Y-82525245D01*
X153624732Y-82543498D01*
X153649295Y-82591726D01*
X153652392Y-82600820D01*
X153663040Y-82669598D01*
X153634565Y-82711360D01*
X153560344Y-82731263D01*
X153480168Y-82734944D01*
X153335890Y-82707658D01*
X153261203Y-82668690D01*
X153168963Y-82577148D01*
X153120043Y-82464782D01*
X153115654Y-82346051D01*
X153157001Y-82235411D01*
X153219197Y-82166080D01*
X153281294Y-82127265D01*
X153378895Y-82078125D01*
X153492632Y-82028292D01*
X153511590Y-82020677D01*
X153636521Y-81965545D01*
X153708539Y-81916954D01*
X153731700Y-81868647D01*
X153710064Y-81814370D01*
X153672920Y-81771943D01*
X153585127Y-81719702D01*
X153488530Y-81715784D01*
X153399944Y-81756041D01*
X153336186Y-81836326D01*
X153327817Y-81857040D01*
X153279096Y-81933225D01*
X153207965Y-81989785D01*
X153118207Y-82036201D01*
X153118207Y-81904584D01*
X153123490Y-81824168D01*
X153146142Y-81760786D01*
X153196367Y-81693163D01*
X153244582Y-81641076D01*
X153319554Y-81567322D01*
X153377806Y-81527702D01*
X153440372Y-81511810D01*
X153511193Y-81509184D01*
X153666406Y-81532156D01*
G37*
X153666406Y-81532156D02*
X153750469Y-81570393D01*
X153816450Y-81616726D01*
X153864794Y-81668532D01*
X153898172Y-81735363D01*
X153919253Y-81826769D01*
X153930707Y-81952301D01*
X153935203Y-82121508D01*
X153935678Y-82232933D01*
X153935678Y-82667627D01*
X153861316Y-82701509D01*
X153802746Y-82726272D01*
X153773730Y-82735391D01*
X153768179Y-82708257D01*
X153763775Y-82635094D01*
X153761078Y-82528263D01*
X153760506Y-82443437D01*
X153758046Y-82320887D01*
X153751412Y-82223668D01*
X153741726Y-82164134D01*
X153734032Y-82151483D01*
X153682311Y-82164402D01*
X153601117Y-82197539D01*
X153507102Y-82242461D01*
X153416917Y-82290735D01*
X153347215Y-82333928D01*
X153314648Y-82363608D01*
X153314519Y-82363929D01*
X153317320Y-82418857D01*
X153342439Y-82471292D01*
X153386541Y-82513881D01*
X153450909Y-82528126D01*
X153505921Y-82526466D01*
X153583835Y-82525245D01*
X153624732Y-82543498D01*
X153649295Y-82591726D01*
X153652392Y-82600820D01*
X153663040Y-82669598D01*
X153634565Y-82711360D01*
X153560344Y-82731263D01*
X153480168Y-82734944D01*
X153335890Y-82707658D01*
X153261203Y-82668690D01*
X153168963Y-82577148D01*
X153120043Y-82464782D01*
X153115654Y-82346051D01*
X153157001Y-82235411D01*
X153219197Y-82166080D01*
X153281294Y-82127265D01*
X153378895Y-82078125D01*
X153492632Y-82028292D01*
X153511590Y-82020677D01*
X153636521Y-81965545D01*
X153708539Y-81916954D01*
X153731700Y-81868647D01*
X153710064Y-81814370D01*
X153672920Y-81771943D01*
X153585127Y-81719702D01*
X153488530Y-81715784D01*
X153399944Y-81756041D01*
X153336186Y-81836326D01*
X153327817Y-81857040D01*
X153279096Y-81933225D01*
X153207965Y-81989785D01*
X153118207Y-82036201D01*
X153118207Y-81904584D01*
X153123490Y-81824168D01*
X153146142Y-81760786D01*
X153196367Y-81693163D01*
X153244582Y-81641076D01*
X153319554Y-81567322D01*
X153377806Y-81527702D01*
X153440372Y-81511810D01*
X153511193Y-81509184D01*
X153666406Y-81532156D01*
G36*
X152932124Y-81536840D02*
G01*
X152936579Y-81613653D01*
X152940071Y-81730391D01*
X152942315Y-81877821D01*
X152943035Y-82032455D01*
X152943035Y-82555727D01*
X152850645Y-82648117D01*
X152786978Y-82705047D01*
X152731089Y-82728107D01*
X152654702Y-82726647D01*
X152624380Y-82722934D01*
X152529610Y-82712126D01*
X152451222Y-82705933D01*
X152432115Y-82705361D01*
X152367699Y-82709102D01*
X152275571Y-82718494D01*
X152239850Y-82722934D01*
X152152114Y-82729801D01*
X152093153Y-82714885D01*
X152034690Y-82668835D01*
X152013585Y-82648117D01*
X151921195Y-82555727D01*
X151921195Y-81576947D01*
X151995558Y-81543066D01*
X152059590Y-81517970D01*
X152097052Y-81509184D01*
X152106657Y-81536950D01*
X152115635Y-81614530D01*
X152123386Y-81733348D01*
X152129314Y-81884828D01*
X152132173Y-82012805D01*
X152140161Y-82516425D01*
X152209848Y-82526278D01*
X152273229Y-82519389D01*
X152304286Y-82497083D01*
X152312967Y-82455379D01*
X152320378Y-82366544D01*
X152325931Y-82241834D01*
X152329036Y-82092507D01*
X152329484Y-82015661D01*
X152329931Y-81573287D01*
X152421874Y-81541235D01*
X152486949Y-81519443D01*
X152522347Y-81509281D01*
X152523368Y-81509184D01*
X152526920Y-81536809D01*
X152530823Y-81613411D01*
X152534751Y-81729579D01*
X152538376Y-81875904D01*
X152540908Y-82012805D01*
X152548897Y-82516425D01*
X152724069Y-82516425D01*
X152732107Y-82056965D01*
X152740146Y-81597505D01*
X152825543Y-81553344D01*
X152888593Y-81523019D01*
X152925910Y-81509258D01*
X152926987Y-81509184D01*
X152932124Y-81536840D01*
G37*
X152932124Y-81536840D02*
X152936579Y-81613653D01*
X152940071Y-81730391D01*
X152942315Y-81877821D01*
X152943035Y-82032455D01*
X152943035Y-82555727D01*
X152850645Y-82648117D01*
X152786978Y-82705047D01*
X152731089Y-82728107D01*
X152654702Y-82726647D01*
X152624380Y-82722934D01*
X152529610Y-82712126D01*
X152451222Y-82705933D01*
X152432115Y-82705361D01*
X152367699Y-82709102D01*
X152275571Y-82718494D01*
X152239850Y-82722934D01*
X152152114Y-82729801D01*
X152093153Y-82714885D01*
X152034690Y-82668835D01*
X152013585Y-82648117D01*
X151921195Y-82555727D01*
X151921195Y-81576947D01*
X151995558Y-81543066D01*
X152059590Y-81517970D01*
X152097052Y-81509184D01*
X152106657Y-81536950D01*
X152115635Y-81614530D01*
X152123386Y-81733348D01*
X152129314Y-81884828D01*
X152132173Y-82012805D01*
X152140161Y-82516425D01*
X152209848Y-82526278D01*
X152273229Y-82519389D01*
X152304286Y-82497083D01*
X152312967Y-82455379D01*
X152320378Y-82366544D01*
X152325931Y-82241834D01*
X152329036Y-82092507D01*
X152329484Y-82015661D01*
X152329931Y-81573287D01*
X152421874Y-81541235D01*
X152486949Y-81519443D01*
X152522347Y-81509281D01*
X152523368Y-81509184D01*
X152526920Y-81536809D01*
X152530823Y-81613411D01*
X152534751Y-81729579D01*
X152538376Y-81875904D01*
X152540908Y-82012805D01*
X152548897Y-82516425D01*
X152724069Y-82516425D01*
X152732107Y-82056965D01*
X152740146Y-81597505D01*
X152825543Y-81553344D01*
X152888593Y-81523019D01*
X152925910Y-81509258D01*
X152926987Y-81509184D01*
X152932124Y-81536840D01*
G36*
X151745914Y-81751455D02*
G01*
X151745543Y-81969661D01*
X151744108Y-82137519D01*
X151741002Y-82263070D01*
X151735622Y-82354355D01*
X151727362Y-82419415D01*
X151715616Y-82466291D01*
X151699781Y-82503024D01*
X151687790Y-82523991D01*
X151588490Y-82637694D01*
X151462588Y-82708965D01*
X151323291Y-82734538D01*
X151183805Y-82711150D01*
X151100743Y-82669119D01*
X151013545Y-82596411D01*
X150954117Y-82507612D01*
X150918261Y-82391320D01*
X150901781Y-82236135D01*
X150899447Y-82122287D01*
X150899761Y-82114106D01*
X151103724Y-82114106D01*
X151104970Y-82244657D01*
X151110678Y-82331080D01*
X151123804Y-82387618D01*
X151147306Y-82428514D01*
X151175386Y-82459362D01*
X151269688Y-82518905D01*
X151370940Y-82523992D01*
X151466636Y-82474279D01*
X151474084Y-82467543D01*
X151505874Y-82432502D01*
X151525808Y-82390811D01*
X151536600Y-82328762D01*
X151540965Y-82232644D01*
X151541655Y-82126379D01*
X151540159Y-81992880D01*
X151533964Y-81903822D01*
X151520514Y-81845293D01*
X151497251Y-81803382D01*
X151478175Y-81781123D01*
X151389563Y-81724985D01*
X151287508Y-81718235D01*
X151190095Y-81761114D01*
X151171296Y-81777032D01*
X151139293Y-81812382D01*
X151119318Y-81854502D01*
X151108593Y-81917251D01*
X151104339Y-82014487D01*
X151103724Y-82114106D01*
X150899761Y-82114106D01*
X150906504Y-81938947D01*
X150930472Y-81801195D01*
X150975548Y-81697632D01*
X151045928Y-81616856D01*
X151100743Y-81575455D01*
X151200376Y-81530728D01*
X151315855Y-81509967D01*
X151423199Y-81515525D01*
X151483264Y-81537943D01*
X151506835Y-81544323D01*
X151522477Y-81520535D01*
X151533395Y-81456788D01*
X151541655Y-81359687D01*
X151550699Y-81251541D01*
X151563261Y-81186475D01*
X151586119Y-81149268D01*
X151626051Y-81124699D01*
X151651138Y-81113819D01*
X151746023Y-81074072D01*
X151745914Y-81751455D01*
G37*
X151745914Y-81751455D02*
X151745543Y-81969661D01*
X151744108Y-82137519D01*
X151741002Y-82263070D01*
X151735622Y-82354355D01*
X151727362Y-82419415D01*
X151715616Y-82466291D01*
X151699781Y-82503024D01*
X151687790Y-82523991D01*
X151588490Y-82637694D01*
X151462588Y-82708965D01*
X151323291Y-82734538D01*
X151183805Y-82711150D01*
X151100743Y-82669119D01*
X151013545Y-82596411D01*
X150954117Y-82507612D01*
X150918261Y-82391320D01*
X150901781Y-82236135D01*
X150899447Y-82122287D01*
X150899761Y-82114106D01*
X151103724Y-82114106D01*
X151104970Y-82244657D01*
X151110678Y-82331080D01*
X151123804Y-82387618D01*
X151147306Y-82428514D01*
X151175386Y-82459362D01*
X151269688Y-82518905D01*
X151370940Y-82523992D01*
X151466636Y-82474279D01*
X151474084Y-82467543D01*
X151505874Y-82432502D01*
X151525808Y-82390811D01*
X151536600Y-82328762D01*
X151540965Y-82232644D01*
X151541655Y-82126379D01*
X151540159Y-81992880D01*
X151533964Y-81903822D01*
X151520514Y-81845293D01*
X151497251Y-81803382D01*
X151478175Y-81781123D01*
X151389563Y-81724985D01*
X151287508Y-81718235D01*
X151190095Y-81761114D01*
X151171296Y-81777032D01*
X151139293Y-81812382D01*
X151119318Y-81854502D01*
X151108593Y-81917251D01*
X151104339Y-82014487D01*
X151103724Y-82114106D01*
X150899761Y-82114106D01*
X150906504Y-81938947D01*
X150930472Y-81801195D01*
X150975548Y-81697632D01*
X151045928Y-81616856D01*
X151100743Y-81575455D01*
X151200376Y-81530728D01*
X151315855Y-81509967D01*
X151423199Y-81515525D01*
X151483264Y-81537943D01*
X151506835Y-81544323D01*
X151522477Y-81520535D01*
X151533395Y-81456788D01*
X151541655Y-81359687D01*
X151550699Y-81251541D01*
X151563261Y-81186475D01*
X151586119Y-81149268D01*
X151626051Y-81124699D01*
X151651138Y-81113819D01*
X151746023Y-81074072D01*
X151745914Y-81751455D01*
G36*
X150417943Y-81518920D02*
G01*
X150550565Y-81567859D01*
X150658010Y-81654419D01*
X150700032Y-81715352D01*
X150745843Y-81827161D01*
X150744891Y-81908006D01*
X150696808Y-81962378D01*
X150679017Y-81971624D01*
X150602204Y-82000450D01*
X150562976Y-81993065D01*
X150549689Y-81944658D01*
X150549012Y-81917920D01*
X150524686Y-81819548D01*
X150461281Y-81750734D01*
X150373154Y-81717498D01*
X150274663Y-81725861D01*
X150194602Y-81769296D01*
X150167561Y-81794072D01*
X150148394Y-81824129D01*
X150135446Y-81869565D01*
X150127064Y-81940476D01*
X150121593Y-82046960D01*
X150117378Y-82199112D01*
X150116287Y-82247287D01*
X150112307Y-82412095D01*
X150107781Y-82528088D01*
X150100995Y-82604833D01*
X150090231Y-82651893D01*
X150073773Y-82678835D01*
X150049906Y-82695223D01*
X150034626Y-82702463D01*
X149969733Y-82727220D01*
X149931534Y-82735391D01*
X149918912Y-82708103D01*
X149911208Y-82625603D01*
X149908380Y-82486941D01*
X149910386Y-82291162D01*
X149911011Y-82260965D01*
X149915421Y-82082349D01*
X149920635Y-81951923D01*
X149928055Y-81859492D01*
X149939082Y-81794858D01*
X149955117Y-81747825D01*
X149977561Y-81708196D01*
X149989302Y-81691215D01*
X150056619Y-81616080D01*
X150131910Y-81557638D01*
X150141128Y-81552536D01*
X150276133Y-81512260D01*
X150417943Y-81518920D01*
G37*
X150417943Y-81518920D02*
X150550565Y-81567859D01*
X150658010Y-81654419D01*
X150700032Y-81715352D01*
X150745843Y-81827161D01*
X150744891Y-81908006D01*
X150696808Y-81962378D01*
X150679017Y-81971624D01*
X150602204Y-82000450D01*
X150562976Y-81993065D01*
X150549689Y-81944658D01*
X150549012Y-81917920D01*
X150524686Y-81819548D01*
X150461281Y-81750734D01*
X150373154Y-81717498D01*
X150274663Y-81725861D01*
X150194602Y-81769296D01*
X150167561Y-81794072D01*
X150148394Y-81824129D01*
X150135446Y-81869565D01*
X150127064Y-81940476D01*
X150121593Y-82046960D01*
X150117378Y-82199112D01*
X150116287Y-82247287D01*
X150112307Y-82412095D01*
X150107781Y-82528088D01*
X150100995Y-82604833D01*
X150090231Y-82651893D01*
X150073773Y-82678835D01*
X150049906Y-82695223D01*
X150034626Y-82702463D01*
X149969733Y-82727220D01*
X149931534Y-82735391D01*
X149918912Y-82708103D01*
X149911208Y-82625603D01*
X149908380Y-82486941D01*
X149910386Y-82291162D01*
X149911011Y-82260965D01*
X149915421Y-82082349D01*
X149920635Y-81951923D01*
X149928055Y-81859492D01*
X149939082Y-81794858D01*
X149955117Y-81747825D01*
X149977561Y-81708196D01*
X149989302Y-81691215D01*
X150056619Y-81616080D01*
X150131910Y-81557638D01*
X150141128Y-81552536D01*
X150276133Y-81512260D01*
X150417943Y-81518920D01*
G36*
X149431944Y-81521360D02*
G01*
X149546343Y-81563842D01*
X149547652Y-81564658D01*
X149618403Y-81616730D01*
X149670636Y-81677584D01*
X149707371Y-81756887D01*
X149731634Y-81864309D01*
X149746445Y-82009517D01*
X149754829Y-82202179D01*
X149755564Y-82229628D01*
X149766120Y-82643521D01*
X149677291Y-82689456D01*
X149613018Y-82720498D01*
X149574210Y-82735206D01*
X149572415Y-82735391D01*
X149565700Y-82708250D01*
X149560365Y-82635041D01*
X149557083Y-82528081D01*
X149556368Y-82441469D01*
X149556351Y-82301162D01*
X149549937Y-82213051D01*
X149527580Y-82171025D01*
X149479732Y-82168975D01*
X149396849Y-82200790D01*
X149271713Y-82259272D01*
X149179697Y-82307845D01*
X149132371Y-82349986D01*
X149118458Y-82395916D01*
X149118437Y-82398189D01*
X149141395Y-82477311D01*
X149209370Y-82520055D01*
X149313398Y-82526246D01*
X149388330Y-82525172D01*
X149427839Y-82546753D01*
X149452478Y-82598591D01*
X149466659Y-82664632D01*
X149446223Y-82702104D01*
X149438528Y-82707467D01*
X149366083Y-82729006D01*
X149264633Y-82732055D01*
X149160157Y-82717778D01*
X149086125Y-82691688D01*
X148983772Y-82604785D01*
X148925591Y-82483816D01*
X148914069Y-82389308D01*
X148922862Y-82304062D01*
X148954680Y-82234476D01*
X149017684Y-82172672D01*
X149120031Y-82110772D01*
X149269882Y-82040897D01*
X149279012Y-82036948D01*
X149413997Y-81974588D01*
X149497294Y-81923446D01*
X149532997Y-81877488D01*
X149525203Y-81830683D01*
X149478007Y-81776998D01*
X149463894Y-81764644D01*
X149369359Y-81716741D01*
X149271406Y-81718758D01*
X149186097Y-81765724D01*
X149129496Y-81852669D01*
X149124237Y-81869734D01*
X149073023Y-81952504D01*
X149008037Y-81992372D01*
X148914069Y-82031882D01*
X148914069Y-81929658D01*
X148942653Y-81781072D01*
X149027495Y-81644784D01*
X149071645Y-81599191D01*
X149172005Y-81540674D01*
X149299635Y-81514184D01*
X149431944Y-81521360D01*
G37*
X149431944Y-81521360D02*
X149546343Y-81563842D01*
X149547652Y-81564658D01*
X149618403Y-81616730D01*
X149670636Y-81677584D01*
X149707371Y-81756887D01*
X149731634Y-81864309D01*
X149746445Y-82009517D01*
X149754829Y-82202179D01*
X149755564Y-82229628D01*
X149766120Y-82643521D01*
X149677291Y-82689456D01*
X149613018Y-82720498D01*
X149574210Y-82735206D01*
X149572415Y-82735391D01*
X149565700Y-82708250D01*
X149560365Y-82635041D01*
X149557083Y-82528081D01*
X149556368Y-82441469D01*
X149556351Y-82301162D01*
X149549937Y-82213051D01*
X149527580Y-82171025D01*
X149479732Y-82168975D01*
X149396849Y-82200790D01*
X149271713Y-82259272D01*
X149179697Y-82307845D01*
X149132371Y-82349986D01*
X149118458Y-82395916D01*
X149118437Y-82398189D01*
X149141395Y-82477311D01*
X149209370Y-82520055D01*
X149313398Y-82526246D01*
X149388330Y-82525172D01*
X149427839Y-82546753D01*
X149452478Y-82598591D01*
X149466659Y-82664632D01*
X149446223Y-82702104D01*
X149438528Y-82707467D01*
X149366083Y-82729006D01*
X149264633Y-82732055D01*
X149160157Y-82717778D01*
X149086125Y-82691688D01*
X148983772Y-82604785D01*
X148925591Y-82483816D01*
X148914069Y-82389308D01*
X148922862Y-82304062D01*
X148954680Y-82234476D01*
X149017684Y-82172672D01*
X149120031Y-82110772D01*
X149269882Y-82040897D01*
X149279012Y-82036948D01*
X149413997Y-81974588D01*
X149497294Y-81923446D01*
X149532997Y-81877488D01*
X149525203Y-81830683D01*
X149478007Y-81776998D01*
X149463894Y-81764644D01*
X149369359Y-81716741D01*
X149271406Y-81718758D01*
X149186097Y-81765724D01*
X149129496Y-81852669D01*
X149124237Y-81869734D01*
X149073023Y-81952504D01*
X149008037Y-81992372D01*
X148914069Y-82031882D01*
X148914069Y-81929658D01*
X148942653Y-81781072D01*
X149027495Y-81644784D01*
X149071645Y-81599191D01*
X149172005Y-81540674D01*
X149299635Y-81514184D01*
X149431944Y-81521360D01*
G36*
X148096598Y-81320857D02*
G01*
X148105154Y-81440188D01*
X148114981Y-81510506D01*
X148128599Y-81541179D01*
X148148527Y-81541571D01*
X148154989Y-81537910D01*
X148240940Y-81511398D01*
X148352745Y-81512946D01*
X148466414Y-81540199D01*
X148537510Y-81575455D01*
X148610405Y-81631778D01*
X148663693Y-81695519D01*
X148700275Y-81776510D01*
X148723050Y-81884586D01*
X148734919Y-82029580D01*
X148738782Y-82221326D01*
X148738851Y-82258109D01*
X148738897Y-82671288D01*
X148646954Y-82703339D01*
X148581652Y-82725144D01*
X148545824Y-82735297D01*
X148544770Y-82735391D01*
X148541242Y-82707860D01*
X148538239Y-82631923D01*
X148535990Y-82517565D01*
X148534724Y-82374769D01*
X148534529Y-82287951D01*
X148534123Y-82116773D01*
X148532032Y-81994088D01*
X148526947Y-81910000D01*
X148517560Y-81854614D01*
X148502561Y-81818032D01*
X148480642Y-81790359D01*
X148466957Y-81777032D01*
X148372949Y-81723328D01*
X148270364Y-81719307D01*
X148177290Y-81764725D01*
X148160078Y-81781123D01*
X148134832Y-81811957D01*
X148117320Y-81848531D01*
X148106142Y-81901415D01*
X148099896Y-81981177D01*
X148097182Y-82098385D01*
X148096598Y-82259991D01*
X148096598Y-82671288D01*
X148004655Y-82703339D01*
X147939353Y-82725144D01*
X147903525Y-82735297D01*
X147902471Y-82735391D01*
X147899775Y-82707448D01*
X147897345Y-82628630D01*
X147895278Y-82506453D01*
X147893671Y-82348432D01*
X147892623Y-82162083D01*
X147892231Y-81954920D01*
X147892230Y-81945706D01*
X147892230Y-81156020D01*
X147987115Y-81115997D01*
X148082000Y-81075973D01*
X148096598Y-81320857D01*
G37*
X148096598Y-81320857D02*
X148105154Y-81440188D01*
X148114981Y-81510506D01*
X148128599Y-81541179D01*
X148148527Y-81541571D01*
X148154989Y-81537910D01*
X148240940Y-81511398D01*
X148352745Y-81512946D01*
X148466414Y-81540199D01*
X148537510Y-81575455D01*
X148610405Y-81631778D01*
X148663693Y-81695519D01*
X148700275Y-81776510D01*
X148723050Y-81884586D01*
X148734919Y-82029580D01*
X148738782Y-82221326D01*
X148738851Y-82258109D01*
X148738897Y-82671288D01*
X148646954Y-82703339D01*
X148581652Y-82725144D01*
X148545824Y-82735297D01*
X148544770Y-82735391D01*
X148541242Y-82707860D01*
X148538239Y-82631923D01*
X148535990Y-82517565D01*
X148534724Y-82374769D01*
X148534529Y-82287951D01*
X148534123Y-82116773D01*
X148532032Y-81994088D01*
X148526947Y-81910000D01*
X148517560Y-81854614D01*
X148502561Y-81818032D01*
X148480642Y-81790359D01*
X148466957Y-81777032D01*
X148372949Y-81723328D01*
X148270364Y-81719307D01*
X148177290Y-81764725D01*
X148160078Y-81781123D01*
X148134832Y-81811957D01*
X148117320Y-81848531D01*
X148106142Y-81901415D01*
X148099896Y-81981177D01*
X148097182Y-82098385D01*
X148096598Y-82259991D01*
X148096598Y-82671288D01*
X148004655Y-82703339D01*
X147939353Y-82725144D01*
X147903525Y-82735297D01*
X147902471Y-82735391D01*
X147899775Y-82707448D01*
X147897345Y-82628630D01*
X147895278Y-82506453D01*
X147893671Y-82348432D01*
X147892623Y-82162083D01*
X147892231Y-81954920D01*
X147892230Y-81945706D01*
X147892230Y-81156020D01*
X147987115Y-81115997D01*
X148082000Y-81075973D01*
X148096598Y-81320857D01*
G36*
X145667552Y-81481676D02*
G01*
X145782658Y-81559111D01*
X145871611Y-81670949D01*
X145924749Y-81813265D01*
X145935497Y-81918015D01*
X145934276Y-81961726D01*
X145924056Y-81995194D01*
X145895961Y-82025179D01*
X145841116Y-82058440D01*
X145750645Y-82101738D01*
X145615672Y-82161833D01*
X145614989Y-82162134D01*
X145490751Y-82219037D01*
X145388873Y-82269565D01*
X145319767Y-82308280D01*
X145293846Y-82329740D01*
X145293839Y-82329913D01*
X145316685Y-82376644D01*
X145370109Y-82428154D01*
X145431442Y-82465261D01*
X145462515Y-82472632D01*
X145547289Y-82447138D01*
X145620293Y-82383291D01*
X145655913Y-82313094D01*
X145690180Y-82261343D01*
X145757303Y-82202409D01*
X145836208Y-82151496D01*
X145905821Y-82123809D01*
X145920377Y-82122287D01*
X145936763Y-82147321D01*
X145937750Y-82211311D01*
X145925708Y-82297593D01*
X145903007Y-82389501D01*
X145872014Y-82470369D01*
X145870448Y-82473509D01*
X145777181Y-82603734D01*
X145656304Y-82692311D01*
X145519027Y-82735786D01*
X145376560Y-82730706D01*
X145240112Y-82673616D01*
X145234045Y-82669602D01*
X145126710Y-82572326D01*
X145056132Y-82445409D01*
X145017074Y-82278526D01*
X145011832Y-82231639D01*
X145002548Y-82010329D01*
X145013678Y-81907124D01*
X145293839Y-81907124D01*
X145297479Y-81971503D01*
X145317389Y-81990291D01*
X145367026Y-81976235D01*
X145445267Y-81943009D01*
X145532726Y-81901359D01*
X145534899Y-81900256D01*
X145609030Y-81861265D01*
X145638781Y-81835244D01*
X145631445Y-81807965D01*
X145600553Y-81772121D01*
X145521960Y-81720251D01*
X145437323Y-81716439D01*
X145361403Y-81754189D01*
X145308965Y-81827001D01*
X145293839Y-81907124D01*
X145013678Y-81907124D01*
X145021644Y-81833261D01*
X145070634Y-81692829D01*
X145138836Y-81594447D01*
X145261935Y-81495030D01*
X145397528Y-81445711D01*
X145535955Y-81442568D01*
X145667552Y-81481676D01*
G37*
X145667552Y-81481676D02*
X145782658Y-81559111D01*
X145871611Y-81670949D01*
X145924749Y-81813265D01*
X145935497Y-81918015D01*
X145934276Y-81961726D01*
X145924056Y-81995194D01*
X145895961Y-82025179D01*
X145841116Y-82058440D01*
X145750645Y-82101738D01*
X145615672Y-82161833D01*
X145614989Y-82162134D01*
X145490751Y-82219037D01*
X145388873Y-82269565D01*
X145319767Y-82308280D01*
X145293846Y-82329740D01*
X145293839Y-82329913D01*
X145316685Y-82376644D01*
X145370109Y-82428154D01*
X145431442Y-82465261D01*
X145462515Y-82472632D01*
X145547289Y-82447138D01*
X145620293Y-82383291D01*
X145655913Y-82313094D01*
X145690180Y-82261343D01*
X145757303Y-82202409D01*
X145836208Y-82151496D01*
X145905821Y-82123809D01*
X145920377Y-82122287D01*
X145936763Y-82147321D01*
X145937750Y-82211311D01*
X145925708Y-82297593D01*
X145903007Y-82389501D01*
X145872014Y-82470369D01*
X145870448Y-82473509D01*
X145777181Y-82603734D01*
X145656304Y-82692311D01*
X145519027Y-82735786D01*
X145376560Y-82730706D01*
X145240112Y-82673616D01*
X145234045Y-82669602D01*
X145126710Y-82572326D01*
X145056132Y-82445409D01*
X145017074Y-82278526D01*
X145011832Y-82231639D01*
X145002548Y-82010329D01*
X145013678Y-81907124D01*
X145293839Y-81907124D01*
X145297479Y-81971503D01*
X145317389Y-81990291D01*
X145367026Y-81976235D01*
X145445267Y-81943009D01*
X145532726Y-81901359D01*
X145534899Y-81900256D01*
X145609030Y-81861265D01*
X145638781Y-81835244D01*
X145631445Y-81807965D01*
X145600553Y-81772121D01*
X145521960Y-81720251D01*
X145437323Y-81716439D01*
X145361403Y-81754189D01*
X145308965Y-81827001D01*
X145293839Y-81907124D01*
X145013678Y-81907124D01*
X145021644Y-81833261D01*
X145070634Y-81692829D01*
X145138836Y-81594447D01*
X145261935Y-81495030D01*
X145397528Y-81445711D01*
X145535955Y-81442568D01*
X145667552Y-81481676D01*
G36*
X143400221Y-81463015D02*
G01*
X143537061Y-81534968D01*
X143638051Y-81650766D01*
X143673925Y-81725213D01*
X143701839Y-81836992D01*
X143716129Y-81978227D01*
X143717484Y-82132371D01*
X143706595Y-82282879D01*
X143684153Y-82413205D01*
X143650850Y-82506803D01*
X143640615Y-82522922D01*
X143519382Y-82643249D01*
X143375387Y-82715317D01*
X143219139Y-82736408D01*
X143061148Y-82703802D01*
X143017180Y-82684253D01*
X142931556Y-82624012D01*
X142856408Y-82544135D01*
X142849306Y-82534004D01*
X142820439Y-82485181D01*
X142801357Y-82432990D01*
X142790084Y-82364285D01*
X142784645Y-82265918D01*
X142783062Y-82124744D01*
X142783035Y-82093092D01*
X142783107Y-82083019D01*
X143074989Y-82083019D01*
X143076687Y-82216256D01*
X143083372Y-82304674D01*
X143097425Y-82361785D01*
X143121229Y-82401102D01*
X143133379Y-82414241D01*
X143203236Y-82464172D01*
X143271059Y-82461895D01*
X143339635Y-82418584D01*
X143380535Y-82372346D01*
X143404758Y-82304857D01*
X143418361Y-82198433D01*
X143419294Y-82186020D01*
X143421616Y-81993147D01*
X143397350Y-81849900D01*
X143346824Y-81757160D01*
X143270368Y-81715807D01*
X143243076Y-81713552D01*
X143171411Y-81724893D01*
X143122390Y-81764184D01*
X143092418Y-81839326D01*
X143077899Y-81958222D01*
X143074989Y-82083019D01*
X142783107Y-82083019D01*
X142784122Y-81942659D01*
X142788688Y-81837549D01*
X142798688Y-81764714D01*
X142816079Y-81711108D01*
X142842816Y-81663681D01*
X142848724Y-81654864D01*
X142948032Y-81536007D01*
X143056242Y-81467008D01*
X143187981Y-81439619D01*
X143232717Y-81438281D01*
X143400221Y-81463015D01*
G37*
X143400221Y-81463015D02*
X143537061Y-81534968D01*
X143638051Y-81650766D01*
X143673925Y-81725213D01*
X143701839Y-81836992D01*
X143716129Y-81978227D01*
X143717484Y-82132371D01*
X143706595Y-82282879D01*
X143684153Y-82413205D01*
X143650850Y-82506803D01*
X143640615Y-82522922D01*
X143519382Y-82643249D01*
X143375387Y-82715317D01*
X143219139Y-82736408D01*
X143061148Y-82703802D01*
X143017180Y-82684253D01*
X142931556Y-82624012D01*
X142856408Y-82544135D01*
X142849306Y-82534004D01*
X142820439Y-82485181D01*
X142801357Y-82432990D01*
X142790084Y-82364285D01*
X142784645Y-82265918D01*
X142783062Y-82124744D01*
X142783035Y-82093092D01*
X142783107Y-82083019D01*
X143074989Y-82083019D01*
X143076687Y-82216256D01*
X143083372Y-82304674D01*
X143097425Y-82361785D01*
X143121229Y-82401102D01*
X143133379Y-82414241D01*
X143203236Y-82464172D01*
X143271059Y-82461895D01*
X143339635Y-82418584D01*
X143380535Y-82372346D01*
X143404758Y-82304857D01*
X143418361Y-82198433D01*
X143419294Y-82186020D01*
X143421616Y-81993147D01*
X143397350Y-81849900D01*
X143346824Y-81757160D01*
X143270368Y-81715807D01*
X143243076Y-81713552D01*
X143171411Y-81724893D01*
X143122390Y-81764184D01*
X143092418Y-81839326D01*
X143077899Y-81958222D01*
X143074989Y-82083019D01*
X142783107Y-82083019D01*
X142784122Y-81942659D01*
X142788688Y-81837549D01*
X142798688Y-81764714D01*
X142816079Y-81711108D01*
X142842816Y-81663681D01*
X142848724Y-81654864D01*
X142948032Y-81536007D01*
X143056242Y-81467008D01*
X143187981Y-81439619D01*
X143232717Y-81438281D01*
X143400221Y-81463015D01*
G36*
X146769429Y-81474719D02*
G01*
X146863123Y-81528914D01*
X146928264Y-81582707D01*
X146975907Y-81639066D01*
X147008728Y-81707987D01*
X147029406Y-81799468D01*
X147040620Y-81923506D01*
X147045049Y-82090098D01*
X147045563Y-82209851D01*
X147045563Y-82650659D01*
X146921483Y-82706283D01*
X146797402Y-82761907D01*
X146782805Y-82279095D01*
X146776773Y-82098779D01*
X146770445Y-81967901D01*
X146762606Y-81877511D01*
X146752037Y-81818664D01*
X146737523Y-81782413D01*
X146717848Y-81759810D01*
X146711535Y-81754917D01*
X146615888Y-81716706D01*
X146519207Y-81731827D01*
X146461655Y-81771943D01*
X146438245Y-81800370D01*
X146422039Y-81837672D01*
X146411741Y-81894223D01*
X146406049Y-81980394D01*
X146403664Y-82106558D01*
X146403264Y-82238042D01*
X146403186Y-82402999D01*
X146400361Y-82519761D01*
X146390907Y-82598510D01*
X146370940Y-82649431D01*
X146336576Y-82682706D01*
X146283932Y-82708520D01*
X146213617Y-82735344D01*
X146136820Y-82764542D01*
X146145962Y-82246346D01*
X146149643Y-82059539D01*
X146153950Y-81921490D01*
X146160123Y-81822568D01*
X146169402Y-81753145D01*
X146183027Y-81703590D01*
X146202239Y-81664273D01*
X146225402Y-81629584D01*
X146337152Y-81518770D01*
X146473513Y-81454689D01*
X146621825Y-81439339D01*
X146769429Y-81474719D01*
G37*
X146769429Y-81474719D02*
X146863123Y-81528914D01*
X146928264Y-81582707D01*
X146975907Y-81639066D01*
X147008728Y-81707987D01*
X147029406Y-81799468D01*
X147040620Y-81923506D01*
X147045049Y-82090098D01*
X147045563Y-82209851D01*
X147045563Y-82650659D01*
X146921483Y-82706283D01*
X146797402Y-82761907D01*
X146782805Y-82279095D01*
X146776773Y-82098779D01*
X146770445Y-81967901D01*
X146762606Y-81877511D01*
X146752037Y-81818664D01*
X146737523Y-81782413D01*
X146717848Y-81759810D01*
X146711535Y-81754917D01*
X146615888Y-81716706D01*
X146519207Y-81731827D01*
X146461655Y-81771943D01*
X146438245Y-81800370D01*
X146422039Y-81837672D01*
X146411741Y-81894223D01*
X146406049Y-81980394D01*
X146403664Y-82106558D01*
X146403264Y-82238042D01*
X146403186Y-82402999D01*
X146400361Y-82519761D01*
X146390907Y-82598510D01*
X146370940Y-82649431D01*
X146336576Y-82682706D01*
X146283932Y-82708520D01*
X146213617Y-82735344D01*
X146136820Y-82764542D01*
X146145962Y-82246346D01*
X146149643Y-82059539D01*
X146153950Y-81921490D01*
X146160123Y-81822568D01*
X146169402Y-81753145D01*
X146183027Y-81703590D01*
X146202239Y-81664273D01*
X146225402Y-81629584D01*
X146337152Y-81518770D01*
X146473513Y-81454689D01*
X146621825Y-81439339D01*
X146769429Y-81474719D01*
G36*
X144523900Y-81458903D02*
G01*
X144635450Y-81514522D01*
X144733908Y-81616931D01*
X144761023Y-81654864D01*
X144790562Y-81704500D01*
X144809728Y-81758412D01*
X144820693Y-81830364D01*
X144825629Y-81934122D01*
X144826713Y-82071101D01*
X144821818Y-82258815D01*
X144804804Y-82399758D01*
X144772177Y-82504908D01*
X144720442Y-82585243D01*
X144646104Y-82651741D01*
X144640642Y-82655678D01*
X144567380Y-82695953D01*
X144479160Y-82715880D01*
X144366962Y-82720793D01*
X144184567Y-82720793D01*
X144184491Y-82897857D01*
X144182793Y-82996470D01*
X144172450Y-83054314D01*
X144145422Y-83089006D01*
X144093668Y-83118164D01*
X144081239Y-83124121D01*
X144023077Y-83152039D01*
X143978044Y-83169672D01*
X143944559Y-83171194D01*
X143921038Y-83150781D01*
X143905900Y-83102607D01*
X143897563Y-83020846D01*
X143894444Y-82899672D01*
X143894960Y-82733260D01*
X143897529Y-82515785D01*
X143898332Y-82450736D01*
X143901222Y-82226502D01*
X143903812Y-82079821D01*
X144184414Y-82079821D01*
X144185991Y-82204326D01*
X144193000Y-82285787D01*
X144208858Y-82339515D01*
X144236981Y-82380823D01*
X144256075Y-82400971D01*
X144334135Y-82459921D01*
X144403247Y-82464720D01*
X144474560Y-82416038D01*
X144476368Y-82414241D01*
X144505383Y-82376618D01*
X144523033Y-82325484D01*
X144531936Y-82246738D01*
X144534709Y-82126276D01*
X144534759Y-82099588D01*
X144528058Y-81933583D01*
X144506248Y-81818505D01*
X144466765Y-81748254D01*
X144407044Y-81716729D01*
X144372528Y-81713552D01*
X144290611Y-81728460D01*
X144234421Y-81777548D01*
X144200598Y-81867362D01*
X144185780Y-82004445D01*
X144184414Y-82079821D01*
X143903812Y-82079821D01*
X143904287Y-82052952D01*
X143908247Y-81922382D01*
X143913826Y-81827087D01*
X143921746Y-81759364D01*
X143932731Y-81711507D01*
X143947501Y-81675813D01*
X143966782Y-81644578D01*
X143975049Y-81632824D01*
X144084712Y-81521797D01*
X144223365Y-81458847D01*
X144383754Y-81441297D01*
X144523900Y-81458903D01*
G37*
X144523900Y-81458903D02*
X144635450Y-81514522D01*
X144733908Y-81616931D01*
X144761023Y-81654864D01*
X144790562Y-81704500D01*
X144809728Y-81758412D01*
X144820693Y-81830364D01*
X144825629Y-81934122D01*
X144826713Y-82071101D01*
X144821818Y-82258815D01*
X144804804Y-82399758D01*
X144772177Y-82504908D01*
X144720442Y-82585243D01*
X144646104Y-82651741D01*
X144640642Y-82655678D01*
X144567380Y-82695953D01*
X144479160Y-82715880D01*
X144366962Y-82720793D01*
X144184567Y-82720793D01*
X144184491Y-82897857D01*
X144182793Y-82996470D01*
X144172450Y-83054314D01*
X144145422Y-83089006D01*
X144093668Y-83118164D01*
X144081239Y-83124121D01*
X144023077Y-83152039D01*
X143978044Y-83169672D01*
X143944559Y-83171194D01*
X143921038Y-83150781D01*
X143905900Y-83102607D01*
X143897563Y-83020846D01*
X143894444Y-82899672D01*
X143894960Y-82733260D01*
X143897529Y-82515785D01*
X143898332Y-82450736D01*
X143901222Y-82226502D01*
X143903812Y-82079821D01*
X144184414Y-82079821D01*
X144185991Y-82204326D01*
X144193000Y-82285787D01*
X144208858Y-82339515D01*
X144236981Y-82380823D01*
X144256075Y-82400971D01*
X144334135Y-82459921D01*
X144403247Y-82464720D01*
X144474560Y-82416038D01*
X144476368Y-82414241D01*
X144505383Y-82376618D01*
X144523033Y-82325484D01*
X144531936Y-82246738D01*
X144534709Y-82126276D01*
X144534759Y-82099588D01*
X144528058Y-81933583D01*
X144506248Y-81818505D01*
X144466765Y-81748254D01*
X144407044Y-81716729D01*
X144372528Y-81713552D01*
X144290611Y-81728460D01*
X144234421Y-81777548D01*
X144200598Y-81867362D01*
X144185780Y-82004445D01*
X144184414Y-82079821D01*
X143903812Y-82079821D01*
X143904287Y-82052952D01*
X143908247Y-81922382D01*
X143913826Y-81827087D01*
X143921746Y-81759364D01*
X143932731Y-81711507D01*
X143947501Y-81675813D01*
X143966782Y-81644578D01*
X143975049Y-81632824D01*
X144084712Y-81521797D01*
X144223365Y-81458847D01*
X144383754Y-81441297D01*
X144523900Y-81458903D01*
D11*
X115062000Y-50038000D02*
X139192000Y-50038000D01*
X115062000Y-68580000D02*
X115062000Y-50038000D01*
X139192000Y-68580000D02*
X115062000Y-68580000D01*
X139192000Y-50038000D02*
X139192000Y-68580000D01*
X135224000Y-75298000D02*
X131984000Y-75298000D01*
X135224000Y-70458000D02*
X131984000Y-70458000D01*
X131984000Y-70458000D02*
X131984000Y-75298000D01*
X135224000Y-70458000D02*
X135224000Y-75298000D01*
X163857000Y-114712000D02*
X163857000Y-117952000D01*
X159017000Y-114712000D02*
X159017000Y-117952000D01*
X159017000Y-117952000D02*
X163857000Y-117952000D01*
X159017000Y-114712000D02*
X163857000Y-114712000D01*
X132444000Y-78934000D02*
X126984000Y-78934000D01*
X132444000Y-129854000D02*
X132444000Y-78934000D01*
X119524000Y-129854000D02*
X132444000Y-129854000D01*
X119524000Y-78934000D02*
X119524000Y-129854000D01*
X124984000Y-78934000D02*
X119524000Y-78934000D01*
X126984000Y-78934000D02*
G75*
G02X124984000Y-78934000I-1000000J0D01*
G01*
X165862000Y-107061000D02*
X165862000Y-91059000D01*
X179832000Y-91059000D02*
X158242000Y-91059000D01*
X179832000Y-107061000D02*
X179832000Y-91059000D01*
X158242000Y-107061000D02*
X179832000Y-107061000D01*
X213868000Y-95250000D02*
X213106000Y-95250000D01*
X213868000Y-102870000D02*
X213868000Y-95250000D01*
X213106000Y-102870000D02*
X213868000Y-102870000D01*
X208026000Y-102870000D02*
X213106000Y-102870000D01*
X208026000Y-95250000D02*
X213106000Y-95250000D01*
X208026000Y-102870000D02*
X208026000Y-95250000D01*
X213106000Y-113030000D02*
X158242000Y-113030000D01*
X213106000Y-85344000D02*
X213106000Y-113030000D01*
X158242000Y-85344000D02*
X213106000Y-85344000D01*
X158242000Y-113030000D02*
X158242000Y-85344000D01*
X171831000Y-52070000D02*
X171831000Y-38354000D01*
X162941000Y-52070000D02*
X171831000Y-52070000D01*
X162941000Y-49276000D02*
X162941000Y-52070000D01*
X162941000Y-38354000D02*
X162941000Y-49276000D01*
X169799000Y-67056000D02*
X203835000Y-67056000D01*
X169799000Y-71120000D02*
X169799000Y-67056000D01*
X160401000Y-71120000D02*
X169799000Y-71120000D01*
X160401000Y-38354000D02*
X160401000Y-71120000D01*
X203835000Y-71120000D02*
X203835000Y-67056000D01*
X209169000Y-71120000D02*
X203835000Y-71120000D01*
X213233000Y-71120000D02*
X209169000Y-71120000D01*
X213233000Y-38354000D02*
X213233000Y-71120000D01*
X160401000Y-38354000D02*
X213233000Y-38354000D01*
X121000000Y-70458000D02*
X121000000Y-75298000D01*
X117760000Y-70458000D02*
X117760000Y-75298000D01*
X121000000Y-70458000D02*
X117760000Y-70458000D01*
X121000000Y-75298000D02*
X117760000Y-75298000D01*
X129603500Y-23050500D02*
X129603500Y-31559500D01*
X135572500Y-23050500D02*
X129603500Y-23050500D01*
X141097000Y-47244000D02*
X124079000Y-47244000D01*
X124079000Y-47244000D02*
X124079000Y-38100000D01*
X124079000Y-38100000D02*
X141097000Y-38100000D01*
X141097000Y-38100000D02*
X141097000Y-47244000D01*
X136207500Y-38100000D02*
X136207500Y-31559500D01*
X136207500Y-31559500D02*
X128968500Y-31559500D01*
X128968500Y-31559500D02*
X128968500Y-38100000D01*
X135572500Y-31559500D02*
X135572500Y-23050500D01*
X147066000Y-28321000D02*
X147066000Y-38354000D01*
X155702000Y-28321000D02*
X147066000Y-28321000D01*
X155702000Y-38354000D02*
X155702000Y-28321000D01*
X144907000Y-53848000D02*
X146304000Y-53848000D01*
X144907000Y-38354000D02*
X144907000Y-53848000D01*
X146304000Y-38354000D02*
X144907000Y-38354000D01*
X157924500Y-38354000D02*
X156464000Y-38354000D01*
X157924500Y-53848000D02*
X157924500Y-38354000D01*
X156527500Y-53848000D02*
X157924500Y-53848000D01*
X146304000Y-63881000D02*
X156527500Y-63881000D01*
X146304000Y-38354000D02*
X146304000Y-63881000D01*
X156464000Y-38354000D02*
X146304000Y-38354000D01*
X156527500Y-63881000D02*
X156464000Y-38354000D01*
D10*
X141176380Y-62197904D02*
X140176380Y-62197904D01*
X140652571Y-62197904D02*
X140652571Y-61626476D01*
X141176380Y-61626476D02*
X140176380Y-61626476D01*
X140176380Y-61245523D02*
X141176380Y-61007428D01*
X140462095Y-60816952D01*
X141176380Y-60626476D01*
X140176380Y-60388380D01*
X141176380Y-59483619D02*
X141176380Y-60055047D01*
X141176380Y-59769333D02*
X140176380Y-59769333D01*
X140319238Y-59864571D01*
X140414476Y-59959809D01*
X140462095Y-60055047D01*
X140176380Y-58864571D02*
X140176380Y-58769333D01*
X140224000Y-58674095D01*
X140271619Y-58626476D01*
X140366857Y-58578857D01*
X140557333Y-58531238D01*
X140795428Y-58531238D01*
X140985904Y-58578857D01*
X141081142Y-58626476D01*
X141128761Y-58674095D01*
X141176380Y-58769333D01*
X141176380Y-58864571D01*
X141128761Y-58959809D01*
X141081142Y-59007428D01*
X140985904Y-59055047D01*
X140795428Y-59102666D01*
X140557333Y-59102666D01*
X140366857Y-59055047D01*
X140271619Y-59007428D01*
X140224000Y-58959809D01*
X140176380Y-58864571D01*
X140509714Y-57674095D02*
X141176380Y-57674095D01*
X140128761Y-57912190D02*
X140843047Y-58150285D01*
X140843047Y-57531238D01*
X141176380Y-56626476D02*
X141176380Y-57197904D01*
X141176380Y-56912190D02*
X140176380Y-56912190D01*
X140319238Y-57007428D01*
X140414476Y-57102666D01*
X140462095Y-57197904D01*
D14*
X128158761Y-65245523D02*
X126158761Y-65245523D01*
X127111142Y-65245523D02*
X127111142Y-64102666D01*
X128158761Y-64102666D02*
X126158761Y-64102666D01*
X126158761Y-63340761D02*
X128158761Y-62864571D01*
X126730190Y-62483619D01*
X128158761Y-62102666D01*
X126158761Y-61626476D01*
X127396857Y-60864571D02*
X127396857Y-59340761D01*
X128158761Y-57340761D02*
X128158761Y-58483619D01*
X128158761Y-57912190D02*
X126158761Y-57912190D01*
X126444476Y-58102666D01*
X126634952Y-58293142D01*
X126730190Y-58483619D01*
X126158761Y-56102666D02*
X126158761Y-55912190D01*
X126254000Y-55721714D01*
X126349238Y-55626476D01*
X126539714Y-55531238D01*
X126920666Y-55436000D01*
X127396857Y-55436000D01*
X127777809Y-55531238D01*
X127968285Y-55626476D01*
X128063523Y-55721714D01*
X128158761Y-55912190D01*
X128158761Y-56102666D01*
X128063523Y-56293142D01*
X127968285Y-56388380D01*
X127777809Y-56483619D01*
X127396857Y-56578857D01*
X126920666Y-56578857D01*
X126539714Y-56483619D01*
X126349238Y-56388380D01*
X126254000Y-56293142D01*
X126158761Y-56102666D01*
X126825428Y-53721714D02*
X128158761Y-53721714D01*
X126063523Y-54197904D02*
X127492095Y-54674095D01*
X127492095Y-53436000D01*
D10*
X136850428Y-67436952D02*
X136850428Y-66675047D01*
X136850428Y-64896952D02*
X136850428Y-64135047D01*
X137231380Y-64516000D02*
X136469476Y-64516000D01*
X136850428Y-54609952D02*
X136850428Y-53848047D01*
X137231380Y-54229000D02*
X136469476Y-54229000D01*
X136850428Y-52069952D02*
X136850428Y-51308047D01*
X121102428Y-67436952D02*
X121102428Y-66675047D01*
X121102428Y-64896952D02*
X121102428Y-64135047D01*
X121483380Y-64516000D02*
X120721476Y-64516000D01*
X118705380Y-62420476D02*
X118705380Y-62896666D01*
X119181571Y-62944285D01*
X119133952Y-62896666D01*
X119086333Y-62801428D01*
X119086333Y-62563333D01*
X119133952Y-62468095D01*
X119181571Y-62420476D01*
X119276809Y-62372857D01*
X119514904Y-62372857D01*
X119610142Y-62420476D01*
X119657761Y-62468095D01*
X119705380Y-62563333D01*
X119705380Y-62801428D01*
X119657761Y-62896666D01*
X119610142Y-62944285D01*
X118705380Y-62087142D02*
X119705380Y-61753809D01*
X118705380Y-61420476D01*
X120531000Y-54991904D02*
X120483380Y-55087142D01*
X120483380Y-55230000D01*
X120531000Y-55372857D01*
X120626238Y-55468095D01*
X120721476Y-55515714D01*
X120911952Y-55563333D01*
X121054809Y-55563333D01*
X121245285Y-55515714D01*
X121340523Y-55468095D01*
X121435761Y-55372857D01*
X121483380Y-55230000D01*
X121483380Y-55134761D01*
X121435761Y-54991904D01*
X121388142Y-54944285D01*
X121054809Y-54944285D01*
X121054809Y-55134761D01*
X121483380Y-54515714D02*
X120483380Y-54515714D01*
X121483380Y-53944285D01*
X120483380Y-53944285D01*
X121483380Y-53468095D02*
X120483380Y-53468095D01*
X120483380Y-53230000D01*
X120531000Y-53087142D01*
X120626238Y-52991904D01*
X120721476Y-52944285D01*
X120911952Y-52896666D01*
X121054809Y-52896666D01*
X121245285Y-52944285D01*
X121340523Y-52991904D01*
X121435761Y-53087142D01*
X121483380Y-53230000D01*
X121483380Y-53468095D01*
X121483380Y-56460476D02*
X121007190Y-56793809D01*
X121483380Y-57031904D02*
X120483380Y-57031904D01*
X120483380Y-56650952D01*
X120531000Y-56555714D01*
X120578619Y-56508095D01*
X120673857Y-56460476D01*
X120816714Y-56460476D01*
X120911952Y-56508095D01*
X120959571Y-56555714D01*
X121007190Y-56650952D01*
X121007190Y-57031904D01*
X121483380Y-51380476D02*
X121483380Y-51856666D01*
X120483380Y-51856666D01*
X138628380Y-61816952D02*
X138628380Y-62293142D01*
X137628380Y-62293142D01*
X137628380Y-60531238D02*
X137628380Y-60340761D01*
X137676000Y-60245523D01*
X137771238Y-60150285D01*
X137961714Y-60102666D01*
X138295047Y-60102666D01*
X138485523Y-60150285D01*
X138580761Y-60245523D01*
X138628380Y-60340761D01*
X138628380Y-60531238D01*
X138580761Y-60626476D01*
X138485523Y-60721714D01*
X138295047Y-60769333D01*
X137961714Y-60769333D01*
X137771238Y-60721714D01*
X137676000Y-60626476D01*
X137628380Y-60531238D01*
X137628380Y-59674095D02*
X138437904Y-59674095D01*
X138533142Y-59626476D01*
X138580761Y-59578857D01*
X138628380Y-59483619D01*
X138628380Y-59293142D01*
X138580761Y-59197904D01*
X138533142Y-59150285D01*
X138437904Y-59102666D01*
X137628380Y-59102666D01*
X137628380Y-58769333D02*
X137628380Y-58197904D01*
X138628380Y-58483619D02*
X137628380Y-58483619D01*
X138628380Y-56531238D02*
X138152190Y-56864571D01*
X138628380Y-57102666D02*
X137628380Y-57102666D01*
X137628380Y-56721714D01*
X137676000Y-56626476D01*
X137723619Y-56578857D01*
X137818857Y-56531238D01*
X137961714Y-56531238D01*
X138056952Y-56578857D01*
X138104571Y-56626476D01*
X138152190Y-56721714D01*
X138152190Y-57102666D01*
X136806380Y-73949428D02*
X136806380Y-74520857D01*
X136806380Y-74235142D02*
X135806380Y-74235142D01*
X135949238Y-74330380D01*
X136044476Y-74425619D01*
X136092095Y-74520857D01*
X135806380Y-73330380D02*
X135806380Y-73235142D01*
X135854000Y-73139904D01*
X135901619Y-73092285D01*
X135996857Y-73044666D01*
X136187333Y-72997047D01*
X136425428Y-72997047D01*
X136615904Y-73044666D01*
X136711142Y-73092285D01*
X136758761Y-73139904D01*
X136806380Y-73235142D01*
X136806380Y-73330380D01*
X136758761Y-73425619D01*
X136711142Y-73473238D01*
X136615904Y-73520857D01*
X136425428Y-73568476D01*
X136187333Y-73568476D01*
X135996857Y-73520857D01*
X135901619Y-73473238D01*
X135854000Y-73425619D01*
X135806380Y-73330380D01*
X136139714Y-72568476D02*
X136806380Y-72568476D01*
X136234952Y-72568476D02*
X136187333Y-72520857D01*
X136139714Y-72425619D01*
X136139714Y-72282761D01*
X136187333Y-72187523D01*
X136282571Y-72139904D01*
X136806380Y-72139904D01*
X136282571Y-71330380D02*
X136282571Y-71663714D01*
X136806380Y-71663714D02*
X135806380Y-71663714D01*
X135806380Y-71187523D01*
X160091619Y-119705380D02*
X159520190Y-119705380D01*
X159805904Y-119705380D02*
X159805904Y-118705380D01*
X159710666Y-118848238D01*
X159615428Y-118943476D01*
X159520190Y-118991095D01*
X160710666Y-118705380D02*
X160805904Y-118705380D01*
X160901142Y-118753000D01*
X160948761Y-118800619D01*
X160996380Y-118895857D01*
X161044000Y-119086333D01*
X161044000Y-119324428D01*
X160996380Y-119514904D01*
X160948761Y-119610142D01*
X160901142Y-119657761D01*
X160805904Y-119705380D01*
X160710666Y-119705380D01*
X160615428Y-119657761D01*
X160567809Y-119610142D01*
X160520190Y-119514904D01*
X160472571Y-119324428D01*
X160472571Y-119086333D01*
X160520190Y-118895857D01*
X160567809Y-118800619D01*
X160615428Y-118753000D01*
X160710666Y-118705380D01*
X162234476Y-119038714D02*
X162234476Y-119705380D01*
X162234476Y-119133952D02*
X162282095Y-119086333D01*
X162377333Y-119038714D01*
X162520190Y-119038714D01*
X162615428Y-119086333D01*
X162663047Y-119181571D01*
X162663047Y-119705380D01*
X163472571Y-119181571D02*
X163139238Y-119181571D01*
X163139238Y-119705380D02*
X163139238Y-118705380D01*
X163615428Y-118705380D01*
X123634809Y-77319190D02*
X123634809Y-77795380D01*
X123301476Y-76795380D02*
X123634809Y-77319190D01*
X123968142Y-76795380D01*
X124301476Y-77795380D02*
X124301476Y-76795380D01*
X124634809Y-77509666D01*
X124968142Y-76795380D01*
X124968142Y-77795380D01*
X125396714Y-76890619D02*
X125444333Y-76843000D01*
X125539571Y-76795380D01*
X125777666Y-76795380D01*
X125872904Y-76843000D01*
X125920523Y-76890619D01*
X125968142Y-76985857D01*
X125968142Y-77081095D01*
X125920523Y-77223952D01*
X125349095Y-77795380D01*
X125968142Y-77795380D01*
X126920523Y-77795380D02*
X126349095Y-77795380D01*
X126634809Y-77795380D02*
X126634809Y-76795380D01*
X126539571Y-76938238D01*
X126444333Y-77033476D01*
X126349095Y-77081095D01*
X127777666Y-77128714D02*
X127777666Y-77795380D01*
X127539571Y-76747761D02*
X127301476Y-77462047D01*
X127920523Y-77462047D01*
X128349095Y-77795380D02*
X128539571Y-77795380D01*
X128634809Y-77747761D01*
X128682428Y-77700142D01*
X128777666Y-77557285D01*
X128825285Y-77366809D01*
X128825285Y-76985857D01*
X128777666Y-76890619D01*
X128730047Y-76843000D01*
X128634809Y-76795380D01*
X128444333Y-76795380D01*
X128349095Y-76843000D01*
X128301476Y-76890619D01*
X128253857Y-76985857D01*
X128253857Y-77223952D01*
X128301476Y-77319190D01*
X128349095Y-77366809D01*
X128444333Y-77414428D01*
X128634809Y-77414428D01*
X128730047Y-77366809D01*
X128777666Y-77319190D01*
X128825285Y-77223952D01*
X156392571Y-101202857D02*
X156392571Y-100869523D01*
X156916380Y-100726666D02*
X156916380Y-101202857D01*
X155916380Y-101202857D01*
X155916380Y-100726666D01*
X156868761Y-100345714D02*
X156916380Y-100202857D01*
X156916380Y-99964761D01*
X156868761Y-99869523D01*
X156821142Y-99821904D01*
X156725904Y-99774285D01*
X156630666Y-99774285D01*
X156535428Y-99821904D01*
X156487809Y-99869523D01*
X156440190Y-99964761D01*
X156392571Y-100155238D01*
X156344952Y-100250476D01*
X156297333Y-100298095D01*
X156202095Y-100345714D01*
X156106857Y-100345714D01*
X156011619Y-100298095D01*
X155964000Y-100250476D01*
X155916380Y-100155238D01*
X155916380Y-99917142D01*
X155964000Y-99774285D01*
X156916380Y-99345714D02*
X155916380Y-99345714D01*
X155916380Y-98964761D01*
X155964000Y-98869523D01*
X156011619Y-98821904D01*
X156106857Y-98774285D01*
X156249714Y-98774285D01*
X156344952Y-98821904D01*
X156392571Y-98869523D01*
X156440190Y-98964761D01*
X156440190Y-99345714D01*
X155916380Y-98440952D02*
X155916380Y-97821904D01*
X156297333Y-98155238D01*
X156297333Y-98012380D01*
X156344952Y-97917142D01*
X156392571Y-97869523D01*
X156487809Y-97821904D01*
X156725904Y-97821904D01*
X156821142Y-97869523D01*
X156868761Y-97917142D01*
X156916380Y-98012380D01*
X156916380Y-98298095D01*
X156868761Y-98393333D01*
X156821142Y-98440952D01*
X156011619Y-97440952D02*
X155964000Y-97393333D01*
X155916380Y-97298095D01*
X155916380Y-97060000D01*
X155964000Y-96964761D01*
X156011619Y-96917142D01*
X156106857Y-96869523D01*
X156202095Y-96869523D01*
X156344952Y-96917142D01*
X156916380Y-97488571D01*
X156916380Y-96869523D01*
X177674142Y-69016571D02*
X177817000Y-69064190D01*
X177864619Y-69111809D01*
X177912238Y-69207047D01*
X177912238Y-69349904D01*
X177864619Y-69445142D01*
X177817000Y-69492761D01*
X177721761Y-69540380D01*
X177340809Y-69540380D01*
X177340809Y-68540380D01*
X177674142Y-68540380D01*
X177769380Y-68588000D01*
X177817000Y-68635619D01*
X177864619Y-68730857D01*
X177864619Y-68826095D01*
X177817000Y-68921333D01*
X177769380Y-68968952D01*
X177674142Y-69016571D01*
X177340809Y-69016571D01*
X178340809Y-69540380D02*
X178340809Y-68873714D01*
X178340809Y-69064190D02*
X178388428Y-68968952D01*
X178436047Y-68921333D01*
X178531285Y-68873714D01*
X178626523Y-68873714D01*
X179340809Y-69492761D02*
X179245571Y-69540380D01*
X179055095Y-69540380D01*
X178959857Y-69492761D01*
X178912238Y-69397523D01*
X178912238Y-69016571D01*
X178959857Y-68921333D01*
X179055095Y-68873714D01*
X179245571Y-68873714D01*
X179340809Y-68921333D01*
X179388428Y-69016571D01*
X179388428Y-69111809D01*
X178912238Y-69207047D01*
X180245571Y-69540380D02*
X180245571Y-69016571D01*
X180197952Y-68921333D01*
X180102714Y-68873714D01*
X179912238Y-68873714D01*
X179817000Y-68921333D01*
X180245571Y-69492761D02*
X180150333Y-69540380D01*
X179912238Y-69540380D01*
X179817000Y-69492761D01*
X179769380Y-69397523D01*
X179769380Y-69302285D01*
X179817000Y-69207047D01*
X179912238Y-69159428D01*
X180150333Y-69159428D01*
X180245571Y-69111809D01*
X181150333Y-69540380D02*
X181150333Y-68540380D01*
X181150333Y-69492761D02*
X181055095Y-69540380D01*
X180864619Y-69540380D01*
X180769380Y-69492761D01*
X180721761Y-69445142D01*
X180674142Y-69349904D01*
X180674142Y-69064190D01*
X180721761Y-68968952D01*
X180769380Y-68921333D01*
X180864619Y-68873714D01*
X181055095Y-68873714D01*
X181150333Y-68921333D01*
X181626523Y-69540380D02*
X181626523Y-68540380D01*
X181626523Y-68921333D02*
X181721761Y-68873714D01*
X181912238Y-68873714D01*
X182007476Y-68921333D01*
X182055095Y-68968952D01*
X182102714Y-69064190D01*
X182102714Y-69349904D01*
X182055095Y-69445142D01*
X182007476Y-69492761D01*
X181912238Y-69540380D01*
X181721761Y-69540380D01*
X181626523Y-69492761D01*
X182674142Y-69540380D02*
X182578904Y-69492761D01*
X182531285Y-69445142D01*
X182483666Y-69349904D01*
X182483666Y-69064190D01*
X182531285Y-68968952D01*
X182578904Y-68921333D01*
X182674142Y-68873714D01*
X182817000Y-68873714D01*
X182912238Y-68921333D01*
X182959857Y-68968952D01*
X183007476Y-69064190D01*
X183007476Y-69349904D01*
X182959857Y-69445142D01*
X182912238Y-69492761D01*
X182817000Y-69540380D01*
X182674142Y-69540380D01*
X183864619Y-69540380D02*
X183864619Y-69016571D01*
X183817000Y-68921333D01*
X183721761Y-68873714D01*
X183531285Y-68873714D01*
X183436047Y-68921333D01*
X183864619Y-69492761D02*
X183769380Y-69540380D01*
X183531285Y-69540380D01*
X183436047Y-69492761D01*
X183388428Y-69397523D01*
X183388428Y-69302285D01*
X183436047Y-69207047D01*
X183531285Y-69159428D01*
X183769380Y-69159428D01*
X183864619Y-69111809D01*
X184340809Y-69540380D02*
X184340809Y-68873714D01*
X184340809Y-69064190D02*
X184388428Y-68968952D01*
X184436047Y-68921333D01*
X184531285Y-68873714D01*
X184626523Y-68873714D01*
X185388428Y-69540380D02*
X185388428Y-68540380D01*
X185388428Y-69492761D02*
X185293190Y-69540380D01*
X185102714Y-69540380D01*
X185007476Y-69492761D01*
X184959857Y-69445142D01*
X184912238Y-69349904D01*
X184912238Y-69064190D01*
X184959857Y-68968952D01*
X185007476Y-68921333D01*
X185102714Y-68873714D01*
X185293190Y-68873714D01*
X185388428Y-68921333D01*
X186626523Y-69540380D02*
X186626523Y-68540380D01*
X187007476Y-68540380D01*
X187102714Y-68588000D01*
X187150333Y-68635619D01*
X187197952Y-68730857D01*
X187197952Y-68873714D01*
X187150333Y-68968952D01*
X187102714Y-69016571D01*
X187007476Y-69064190D01*
X186626523Y-69064190D01*
X187769380Y-69540380D02*
X187674142Y-69492761D01*
X187626523Y-69445142D01*
X187578904Y-69349904D01*
X187578904Y-69064190D01*
X187626523Y-68968952D01*
X187674142Y-68921333D01*
X187769380Y-68873714D01*
X187912238Y-68873714D01*
X188007476Y-68921333D01*
X188055095Y-68968952D01*
X188102714Y-69064190D01*
X188102714Y-69349904D01*
X188055095Y-69445142D01*
X188007476Y-69492761D01*
X187912238Y-69540380D01*
X187769380Y-69540380D01*
X188436047Y-68873714D02*
X188626523Y-69540380D01*
X188817000Y-69064190D01*
X189007476Y-69540380D01*
X189197952Y-68873714D01*
X189959857Y-69492761D02*
X189864619Y-69540380D01*
X189674142Y-69540380D01*
X189578904Y-69492761D01*
X189531285Y-69397523D01*
X189531285Y-69016571D01*
X189578904Y-68921333D01*
X189674142Y-68873714D01*
X189864619Y-68873714D01*
X189959857Y-68921333D01*
X190007476Y-69016571D01*
X190007476Y-69111809D01*
X189531285Y-69207047D01*
X190436047Y-69540380D02*
X190436047Y-68873714D01*
X190436047Y-69064190D02*
X190483666Y-68968952D01*
X190531285Y-68921333D01*
X190626523Y-68873714D01*
X190721761Y-68873714D01*
X191769380Y-69492761D02*
X191912238Y-69540380D01*
X192150333Y-69540380D01*
X192245571Y-69492761D01*
X192293190Y-69445142D01*
X192340809Y-69349904D01*
X192340809Y-69254666D01*
X192293190Y-69159428D01*
X192245571Y-69111809D01*
X192150333Y-69064190D01*
X191959857Y-69016571D01*
X191864619Y-68968952D01*
X191817000Y-68921333D01*
X191769380Y-68826095D01*
X191769380Y-68730857D01*
X191817000Y-68635619D01*
X191864619Y-68588000D01*
X191959857Y-68540380D01*
X192197952Y-68540380D01*
X192340809Y-68588000D01*
X193197952Y-68873714D02*
X193197952Y-69540380D01*
X192769380Y-68873714D02*
X192769380Y-69397523D01*
X192817000Y-69492761D01*
X192912238Y-69540380D01*
X193055095Y-69540380D01*
X193150333Y-69492761D01*
X193197952Y-69445142D01*
X193674142Y-68873714D02*
X193674142Y-69873714D01*
X193674142Y-68921333D02*
X193769380Y-68873714D01*
X193959857Y-68873714D01*
X194055095Y-68921333D01*
X194102714Y-68968952D01*
X194150333Y-69064190D01*
X194150333Y-69349904D01*
X194102714Y-69445142D01*
X194055095Y-69492761D01*
X193959857Y-69540380D01*
X193769380Y-69540380D01*
X193674142Y-69492761D01*
X194578904Y-68873714D02*
X194578904Y-69873714D01*
X194578904Y-68921333D02*
X194674142Y-68873714D01*
X194864619Y-68873714D01*
X194959857Y-68921333D01*
X195007476Y-68968952D01*
X195055095Y-69064190D01*
X195055095Y-69349904D01*
X195007476Y-69445142D01*
X194959857Y-69492761D01*
X194864619Y-69540380D01*
X194674142Y-69540380D01*
X194578904Y-69492761D01*
X195626523Y-69540380D02*
X195531285Y-69492761D01*
X195483666Y-69397523D01*
X195483666Y-68540380D01*
X195912238Y-68873714D02*
X196150333Y-69540380D01*
X196388428Y-68873714D02*
X196150333Y-69540380D01*
X196055095Y-69778476D01*
X196007476Y-69826095D01*
X195912238Y-69873714D01*
X164925666Y-42886380D02*
X165592333Y-42886380D01*
X165163761Y-43886380D01*
X165973285Y-43505428D02*
X166735190Y-43505428D01*
X167735190Y-43886380D02*
X167163761Y-43886380D01*
X167449476Y-43886380D02*
X167449476Y-42886380D01*
X167354238Y-43029238D01*
X167259000Y-43124476D01*
X167163761Y-43172095D01*
X168116142Y-42981619D02*
X168163761Y-42934000D01*
X168259000Y-42886380D01*
X168497095Y-42886380D01*
X168592333Y-42934000D01*
X168639952Y-42981619D01*
X168687571Y-43076857D01*
X168687571Y-43172095D01*
X168639952Y-43314952D01*
X168068523Y-43886380D01*
X168687571Y-43886380D01*
X168973285Y-42886380D02*
X169306619Y-43886380D01*
X169639952Y-42886380D01*
X209296047Y-69159428D02*
X210057952Y-69159428D01*
X206756047Y-69159428D02*
X207517952Y-69159428D01*
X207137000Y-69540380D02*
X207137000Y-68778476D01*
X209296047Y-69159428D02*
X210057952Y-69159428D01*
X206756047Y-69159428D02*
X207517952Y-69159428D01*
X207137000Y-69540380D02*
X207137000Y-68778476D01*
X207168904Y-64730380D02*
X207787952Y-64730380D01*
X207454619Y-65111333D01*
X207597476Y-65111333D01*
X207692714Y-65158952D01*
X207740333Y-65206571D01*
X207787952Y-65301809D01*
X207787952Y-65539904D01*
X207740333Y-65635142D01*
X207692714Y-65682761D01*
X207597476Y-65730380D01*
X207311761Y-65730380D01*
X207216523Y-65682761D01*
X207168904Y-65635142D01*
X208073666Y-64730380D02*
X208407000Y-65730380D01*
X208740333Y-64730380D01*
X208978428Y-64730380D02*
X209597476Y-64730380D01*
X209264142Y-65111333D01*
X209407000Y-65111333D01*
X209502238Y-65158952D01*
X209549857Y-65206571D01*
X209597476Y-65301809D01*
X209597476Y-65539904D01*
X209549857Y-65635142D01*
X209502238Y-65682761D01*
X209407000Y-65730380D01*
X209121285Y-65730380D01*
X209026047Y-65682761D01*
X208978428Y-65635142D01*
X165036523Y-64476380D02*
X164560333Y-64476380D01*
X164512714Y-64952571D01*
X164560333Y-64904952D01*
X164655571Y-64857333D01*
X164893666Y-64857333D01*
X164988904Y-64904952D01*
X165036523Y-64952571D01*
X165084142Y-65047809D01*
X165084142Y-65285904D01*
X165036523Y-65381142D01*
X164988904Y-65428761D01*
X164893666Y-65476380D01*
X164655571Y-65476380D01*
X164560333Y-65428761D01*
X164512714Y-65381142D01*
X165369857Y-64476380D02*
X165703190Y-65476380D01*
X166036523Y-64476380D01*
X122582380Y-73949428D02*
X122582380Y-74520857D01*
X122582380Y-74235142D02*
X121582380Y-74235142D01*
X121725238Y-74330380D01*
X121820476Y-74425619D01*
X121868095Y-74520857D01*
X121582380Y-73330380D02*
X121582380Y-73235142D01*
X121630000Y-73139904D01*
X121677619Y-73092285D01*
X121772857Y-73044666D01*
X121963333Y-72997047D01*
X122201428Y-72997047D01*
X122391904Y-73044666D01*
X122487142Y-73092285D01*
X122534761Y-73139904D01*
X122582380Y-73235142D01*
X122582380Y-73330380D01*
X122534761Y-73425619D01*
X122487142Y-73473238D01*
X122391904Y-73520857D01*
X122201428Y-73568476D01*
X121963333Y-73568476D01*
X121772857Y-73520857D01*
X121677619Y-73473238D01*
X121630000Y-73425619D01*
X121582380Y-73330380D01*
X121915714Y-72568476D02*
X122582380Y-72568476D01*
X122010952Y-72568476D02*
X121963333Y-72520857D01*
X121915714Y-72425619D01*
X121915714Y-72282761D01*
X121963333Y-72187523D01*
X122058571Y-72139904D01*
X122582380Y-72139904D01*
X122058571Y-71330380D02*
X122058571Y-71663714D01*
X122582380Y-71663714D02*
X121582380Y-71663714D01*
X121582380Y-71187523D01*
X129968952Y-48712380D02*
X129397523Y-48712380D01*
X129683238Y-48712380D02*
X129683238Y-47712380D01*
X129588000Y-47855238D01*
X129492761Y-47950476D01*
X129397523Y-47998095D01*
X130588000Y-47712380D02*
X130683238Y-47712380D01*
X130778476Y-47760000D01*
X130826095Y-47807619D01*
X130873714Y-47902857D01*
X130921333Y-48093333D01*
X130921333Y-48331428D01*
X130873714Y-48521904D01*
X130826095Y-48617142D01*
X130778476Y-48664761D01*
X130683238Y-48712380D01*
X130588000Y-48712380D01*
X130492761Y-48664761D01*
X130445142Y-48617142D01*
X130397523Y-48521904D01*
X130349904Y-48331428D01*
X130349904Y-48093333D01*
X130397523Y-47902857D01*
X130445142Y-47807619D01*
X130492761Y-47760000D01*
X130588000Y-47712380D01*
X132111809Y-48712380D02*
X132111809Y-47712380D01*
X132207047Y-48331428D02*
X132492761Y-48712380D01*
X132492761Y-48045714D02*
X132111809Y-48426666D01*
X133111809Y-47712380D02*
X133302285Y-47712380D01*
X133397523Y-47760000D01*
X133492761Y-47855238D01*
X133540380Y-48045714D01*
X133540380Y-48379047D01*
X133492761Y-48569523D01*
X133397523Y-48664761D01*
X133302285Y-48712380D01*
X133111809Y-48712380D01*
X133016571Y-48664761D01*
X132921333Y-48569523D01*
X132873714Y-48379047D01*
X132873714Y-48045714D01*
X132921333Y-47855238D01*
X133016571Y-47760000D01*
X133111809Y-47712380D01*
X133968952Y-48712380D02*
X133968952Y-47712380D01*
X134397523Y-48712380D02*
X134397523Y-48188571D01*
X134349904Y-48093333D01*
X134254666Y-48045714D01*
X134111809Y-48045714D01*
X134016571Y-48093333D01*
X133968952Y-48140952D01*
X134873714Y-48712380D02*
X134873714Y-48045714D01*
X134873714Y-48140952D02*
X134921333Y-48093333D01*
X135016571Y-48045714D01*
X135159428Y-48045714D01*
X135254666Y-48093333D01*
X135302285Y-48188571D01*
X135302285Y-48712380D01*
X135302285Y-48188571D02*
X135349904Y-48093333D01*
X135445142Y-48045714D01*
X135588000Y-48045714D01*
X135683238Y-48093333D01*
X135730857Y-48188571D01*
X135730857Y-48712380D01*
X147884000Y-66214666D02*
X148360190Y-66214666D01*
X147788761Y-66500380D02*
X148122095Y-65500380D01*
X148455428Y-66500380D01*
X149217333Y-65833714D02*
X149217333Y-66500380D01*
X148788761Y-65833714D02*
X148788761Y-66357523D01*
X148836380Y-66452761D01*
X148931619Y-66500380D01*
X149074476Y-66500380D01*
X149169714Y-66452761D01*
X149217333Y-66405142D01*
X150122095Y-66500380D02*
X150122095Y-65500380D01*
X150122095Y-66452761D02*
X150026857Y-66500380D01*
X149836380Y-66500380D01*
X149741142Y-66452761D01*
X149693523Y-66405142D01*
X149645904Y-66309904D01*
X149645904Y-66024190D01*
X149693523Y-65928952D01*
X149741142Y-65881333D01*
X149836380Y-65833714D01*
X150026857Y-65833714D01*
X150122095Y-65881333D01*
X150598285Y-66500380D02*
X150598285Y-65833714D01*
X150598285Y-65500380D02*
X150550666Y-65548000D01*
X150598285Y-65595619D01*
X150645904Y-65548000D01*
X150598285Y-65500380D01*
X150598285Y-65595619D01*
X151217333Y-66500380D02*
X151122095Y-66452761D01*
X151074476Y-66405142D01*
X151026857Y-66309904D01*
X151026857Y-66024190D01*
X151074476Y-65928952D01*
X151122095Y-65881333D01*
X151217333Y-65833714D01*
X151360190Y-65833714D01*
X151455428Y-65881333D01*
X151503047Y-65928952D01*
X151550666Y-66024190D01*
X151550666Y-66309904D01*
X151503047Y-66405142D01*
X151455428Y-66452761D01*
X151360190Y-66500380D01*
X151217333Y-66500380D01*
X152264952Y-65500380D02*
X152264952Y-66214666D01*
X152217333Y-66357523D01*
X152122095Y-66452761D01*
X151979238Y-66500380D01*
X151884000Y-66500380D01*
X153169714Y-66500380D02*
X153169714Y-65976571D01*
X153122095Y-65881333D01*
X153026857Y-65833714D01*
X152836380Y-65833714D01*
X152741142Y-65881333D01*
X153169714Y-66452761D02*
X153074476Y-66500380D01*
X152836380Y-66500380D01*
X152741142Y-66452761D01*
X152693523Y-66357523D01*
X152693523Y-66262285D01*
X152741142Y-66167047D01*
X152836380Y-66119428D01*
X153074476Y-66119428D01*
X153169714Y-66071809D01*
X154074476Y-66452761D02*
X153979238Y-66500380D01*
X153788761Y-66500380D01*
X153693523Y-66452761D01*
X153645904Y-66405142D01*
X153598285Y-66309904D01*
X153598285Y-66024190D01*
X153645904Y-65928952D01*
X153693523Y-65881333D01*
X153788761Y-65833714D01*
X153979238Y-65833714D01*
X154074476Y-65881333D01*
X154503047Y-66500380D02*
X154503047Y-65500380D01*
X154598285Y-66119428D02*
X154884000Y-66500380D01*
X154884000Y-65833714D02*
X154503047Y-66214666D01*
M02*
